<?xml version="1.0" encoding="UTF-8" standalone="no"?>
<!DOCTYPE svg PUBLIC "-//W3C//DTD SVG 1.1//EN"
 "http://www.w3.org/Graphics/SVG/1.1/DTD/svg11.dtd">
<!-- Generated by graphviz version 13.1.2 (20250808.2320)
 -->
<!-- Title: architecture Pages: 1 -->
<svg width="2238pt" height="3794pt"
 viewBox="0.00 0.00 2238.00 3794.00" xmlns="http://www.w3.org/2000/svg" xmlns:xlink="http://www.w3.org/1999/xlink">
<g id="graph0" class="graph" transform="scale(2.08333 2.08333) rotate(0) translate(43.2 1777.95)">
<title>architecture</title>
<polygon fill="white" stroke="none" points="-43.2,43.2 -43.2,-1777.95 1031.08,-1777.95 1031.08,43.2 -43.2,43.2"/>
<g id="clust2" class="cluster">
<title>cluster_execution</title>
<path fill="#fef8e1" stroke="#d4960a" stroke-width="2" d="M214.88,-184C214.88,-184 860.88,-184 860.88,-184 866.88,-184 872.88,-190 872.88,-196 872.88,-196 872.88,-1172.75 872.88,-1172.75 872.88,-1178.75 866.88,-1184.75 860.88,-1184.75 860.88,-1184.75 214.88,-1184.75 214.88,-1184.75 208.88,-1184.75 202.88,-1178.75 202.88,-1172.75 202.88,-1172.75 202.88,-196 202.88,-196 202.88,-190 208.88,-184 214.88,-184"/>
<text xml:space="preserve" text-anchor="start" x="210.88" y="-1168.45" font-family="Helvetica,sans-Serif" font-weight="bold" font-size="14.00">EXECUTION</text>
<text xml:space="preserve" text-anchor="start" x="290.38" y="-1168.45" font-family="Helvetica,sans-Serif" font-size="10.00" fill="#666666"> &#160;OpenShift / Tekton</text>
</g>
<g id="clust3" class="cluster">
<title>cluster_cluster_pipeline</title>
<path fill="#fdf0c8" stroke="#cc8a00" stroke-width="1.5" d="M234.88,-204C234.88,-204 840.88,-204 840.88,-204 846.88,-204 852.88,-210 852.88,-216 852.88,-216 852.88,-1129 852.88,-1129 852.88,-1135 846.88,-1141 840.88,-1141 840.88,-1141 234.88,-1141 234.88,-1141 228.88,-1141 222.88,-1135 222.88,-1129 222.88,-1129 222.88,-216 222.88,-216 222.88,-210 228.88,-204 234.88,-204"/>
<text xml:space="preserve" text-anchor="start" x="230.88" y="-1126.6" font-family="Helvetica,sans-Serif" font-weight="bold" font-size="12.00">Cluster Pipeline</text>
</g>
<g id="clust4" class="cluster">
<title>cluster_finally</title>
<path fill="white" stroke="#b37800" stroke-width="1.5" stroke-dasharray="5,2" d="M462.88,-224C462.88,-224 612.88,-224 612.88,-224 618.88,-224 624.88,-230 624.88,-236 624.88,-236 624.88,-519.5 624.88,-519.5 624.88,-525.5 618.88,-531.5 612.88,-531.5 612.88,-531.5 462.88,-531.5 462.88,-531.5 456.88,-531.5 450.88,-525.5 450.88,-519.5 450.88,-519.5 450.88,-236 450.88,-236 450.88,-230 456.88,-224 462.88,-224"/>
<text xml:space="preserve" text-anchor="start" x="458.88" y="-518.05" font-family="Helvetica,sans-Serif" font-style="italic" font-size="11.00">finally</text>
</g>
<!-- test_suite -->
<g id="node1" class="node">
<title>test_suite</title>
<path fill="#f8f9fa" stroke="none" stroke-width="1.5" d="M309.75,-1734.75C309.75,-1734.75 12,-1734.75 12,-1734.75 6,-1734.75 0,-1728.75 0,-1722.75 0,-1722.75 0,-1623.75 0,-1623.75 0,-1617.75 6,-1611.75 12,-1611.75 12,-1611.75 309.75,-1611.75 309.75,-1611.75 315.75,-1611.75 321.75,-1617.75 321.75,-1623.75 321.75,-1623.75 321.75,-1722.75 321.75,-1722.75 321.75,-1728.75 315.75,-1734.75 309.75,-1734.75"/>
<path fill="#e4edf8" stroke="none" d="M13,-1612.75C13,-1612.75 308.75,-1612.75 308.75,-1612.75 314.75,-1612.75 320.75,-1618.75 320.75,-1624.75 320.75,-1624.75 320.75,-1721.75 320.75,-1721.75 320.75,-1727.75 314.75,-1733.75 308.75,-1733.75 308.75,-1733.75 13,-1733.75 13,-1733.75 7,-1733.75 1,-1727.75 1,-1721.75 1,-1721.75 1,-1624.75 1,-1624.75 1,-1618.75 7,-1612.75 13,-1612.75"/>
<polygon fill="#3b78d1" stroke="none" points="2,-1697.75 2,-1732.75 319.75,-1732.75 319.75,-1697.75 2,-1697.75"/>
<text xml:space="preserve" text-anchor="start" x="87.38" y="-1711.4" font-family="Helvetica,sans-Serif" font-size="11.00"> &#160;&#160;&#160;&#160;&#160;&#160;&#160;&#160;&#160;&#160;&#160;&#160;&#160;&#160;&#160;</text>
<text xml:space="preserve" text-anchor="start" x="135.38" y="-1711.4" font-family="Helvetica,sans-Serif" font-weight="bold" font-size="13.00" fill="white">Test Suite</text>
<text xml:space="preserve" text-anchor="start" x="198.38" y="-1711.4" font-family="Helvetica,sans-Serif" font-size="11.00"> &#160;&#160;&#160;&#160;&#160;&#160;&#160;&#160;&#160;&#160;&#160;</text>
<text xml:space="preserve" text-anchor="start" x="12" y="-1678.3" font-family="Helvetica,sans-Serif" font-size="11.00"> &#160;&#160;&#160;&#160;&#160;&#160;&#160;&#160;&#160;&#160;&#160;&#160;&#160;&#160;&#160;</text>
<text xml:space="preserve" text-anchor="start" x="60" y="-1678.3" font-family="Helvetica,sans-Serif" font-weight="bold" font-size="11.00">test_suite.yaml</text>
<text xml:space="preserve" text-anchor="start" x="12" y="-1667.3" font-family="Helvetica,sans-Serif" font-size="11.00"> &#160;&#160;&#160;&#160;&#160;&#160;&#160;&#160;&#160;&#160;&#160;&#160;&#160;&#160;&#160;</text>
<text xml:space="preserve" text-anchor="start" x="60" y="-1667.3" font-family="Helvetica,sans-Serif" font-size="10.00" fill="#555555">ordered list: name, scope, onFailure</text>
<text xml:space="preserve" text-anchor="start" x="216" y="-1667.3" font-family="Helvetica,sans-Serif" font-size="11.00"> &#160;&#160;&#160;&#160;&#160;&#160;&#160;&#160;&#160;&#160;&#160;</text>
<text xml:space="preserve" text-anchor="start" x="12" y="-1636.3" font-family="Helvetica,sans-Serif" font-size="11.00"> &#160;&#160;&#160;&#160;&#160;&#160;&#160;&#160;&#160;&#160;&#160;&#160;&#160;&#160;&#160;</text>
<text xml:space="preserve" text-anchor="start" x="60" y="-1636.3" font-family="Helvetica,sans-Serif" font-weight="bold" font-size="11.00">&lt;test&gt;.yaml</text>
<text xml:space="preserve" text-anchor="start" x="120.75" y="-1636.3" font-family="Helvetica,sans-Serif" font-size="11.00"> + </text>
<text xml:space="preserve" text-anchor="start" x="133.5" y="-1636.3" font-family="Helvetica,sans-Serif" font-weight="bold" font-size="11.00">&lt;test&gt;.go</text>
<text xml:space="preserve" text-anchor="start" x="12" y="-1625.3" font-family="Helvetica,sans-Serif" font-size="11.00"> &#160;&#160;&#160;&#160;&#160;&#160;&#160;&#160;&#160;&#160;&#160;&#160;&#160;&#160;&#160;</text>
<text xml:space="preserve" text-anchor="start" x="60" y="-1625.3" font-family="Helvetica,sans-Serif" font-size="10.00" fill="#555555">DAG, server config, sweep params, Ginkgo logic</text>
<text xml:space="preserve" text-anchor="start" x="273.75" y="-1625.3" font-family="Helvetica,sans-Serif" font-size="11.00"> &#160;&#160;&#160;&#160;&#160;&#160;&#160;&#160;&#160;&#160;&#160;</text>
<path fill="none" stroke="#3b78d1" stroke-width="2" d="M13,-1612.75C13,-1612.75 308.75,-1612.75 308.75,-1612.75 314.75,-1612.75 320.75,-1618.75 320.75,-1624.75 320.75,-1624.75 320.75,-1721.75 320.75,-1721.75 320.75,-1727.75 314.75,-1733.75 308.75,-1733.75 308.75,-1733.75 13,-1733.75 13,-1733.75 7,-1733.75 1,-1727.75 1,-1721.75 1,-1721.75 1,-1624.75 1,-1624.75 1,-1618.75 7,-1612.75 13,-1612.75"/>
</g>
<!-- cluster_config -->
<g id="node2" class="node">
<title>cluster_config</title>
<path fill="#f8f9fa" stroke="none" stroke-width="1.5" d="M626.38,-1719.25C626.38,-1719.25 449.38,-1719.25 449.38,-1719.25 443.38,-1719.25 437.38,-1713.25 437.38,-1707.25 437.38,-1707.25 437.38,-1639.25 437.38,-1639.25 437.38,-1633.25 443.38,-1627.25 449.38,-1627.25 449.38,-1627.25 626.38,-1627.25 626.38,-1627.25 632.38,-1627.25 638.38,-1633.25 638.38,-1639.25 638.38,-1639.25 638.38,-1707.25 638.38,-1707.25 638.38,-1713.25 632.38,-1719.25 626.38,-1719.25"/>
<path fill="#fae8e6" stroke="none" d="M450.38,-1628.25C450.38,-1628.25 625.38,-1628.25 625.38,-1628.25 631.38,-1628.25 637.38,-1634.25 637.38,-1640.25 637.38,-1640.25 637.38,-1706.25 637.38,-1706.25 637.38,-1712.25 631.38,-1718.25 625.38,-1718.25 625.38,-1718.25 450.38,-1718.25 450.38,-1718.25 444.38,-1718.25 438.38,-1712.25 438.38,-1706.25 438.38,-1706.25 438.38,-1640.25 438.38,-1640.25 438.38,-1634.25 444.38,-1628.25 450.38,-1628.25"/>
<polygon fill="#d44332" stroke="none" points="439.38,-1682.25 439.38,-1717.25 636.38,-1717.25 636.38,-1682.25 439.38,-1682.25"/>
<text xml:space="preserve" text-anchor="start" x="449.38" y="-1695.9" font-family="Helvetica,sans-Serif" font-size="11.00"> &#160;&#160;&#160;&#160;&#160;&#160;&#160;&#160;&#160;&#160;&#160;&#160;&#160;&#160;&#160;</text>
<text xml:space="preserve" text-anchor="start" x="497.38" y="-1695.9" font-family="Helvetica,sans-Serif" font-weight="bold" font-size="13.00" fill="white">Cluster Config</text>
<text xml:space="preserve" text-anchor="start" x="590.38" y="-1695.9" font-family="Helvetica,sans-Serif" font-size="11.00"> &#160;&#160;&#160;&#160;&#160;&#160;&#160;&#160;&#160;&#160;&#160;</text>
<text xml:space="preserve" text-anchor="start" x="449.38" y="-1662.8" font-family="Helvetica,sans-Serif" font-size="11.00"> &#160;&#160;&#160;&#160;&#160;&#160;&#160;&#160;&#160;&#160;&#160;&#160;&#160;&#160;&#160;</text>
<text xml:space="preserve" text-anchor="start" x="497.38" y="-1662.8" font-family="Helvetica,sans-Serif" font-weight="bold" font-size="11.00">ocp&#45;test.yaml</text>
<text xml:space="preserve" text-anchor="start" x="449.38" y="-1651.8" font-family="Helvetica,sans-Serif" font-size="11.00"> &#160;&#160;&#160;&#160;&#160;&#160;&#160;&#160;&#160;&#160;&#160;&#160;&#160;&#160;&#160;</text>
<text xml:space="preserve" text-anchor="start" x="497.38" y="-1651.8" font-family="Helvetica,sans-Serif" font-size="10.00" fill="#555555">target nodes, namespace,</text>
<text xml:space="preserve" text-anchor="start" x="467.38" y="-1640.8" font-family="Helvetica,sans-Serif" font-size="10.00" fill="#555555">storage, GPU specs</text>
<text xml:space="preserve" text-anchor="start" x="556.62" y="-1640.8" font-family="Helvetica,sans-Serif" font-size="11.00"> &#160;&#160;&#160;&#160;&#160;&#160;&#160;&#160;&#160;&#160;&#160;</text>
<path fill="none" stroke="#d44332" stroke-width="2" d="M450.38,-1628.25C450.38,-1628.25 625.38,-1628.25 625.38,-1628.25 631.38,-1628.25 637.38,-1634.25 637.38,-1640.25 637.38,-1640.25 637.38,-1706.25 637.38,-1706.25 637.38,-1712.25 631.38,-1718.25 625.38,-1718.25 625.38,-1718.25 450.38,-1718.25 450.38,-1718.25 444.38,-1718.25 438.38,-1712.25 438.38,-1706.25 438.38,-1706.25 438.38,-1640.25 438.38,-1640.25 438.38,-1634.25 444.38,-1628.25 450.38,-1628.25"/>
</g>
<!-- test_suite&#45;&gt;cluster_config -->
<!-- generator -->
<g id="node4" class="node">
<title>generator</title>
<path fill="#f8f9fa" stroke="none" stroke-width="1.5" d="M825.88,-1538.75C825.88,-1538.75 249.88,-1538.75 249.88,-1538.75 243.88,-1538.75 237.88,-1532.75 237.88,-1526.75 237.88,-1526.75 237.88,-1444.75 237.88,-1444.75 237.88,-1438.75 243.88,-1432.75 249.88,-1432.75 249.88,-1432.75 825.88,-1432.75 825.88,-1432.75 831.88,-1432.75 837.88,-1438.75 837.88,-1444.75 837.88,-1444.75 837.88,-1526.75 837.88,-1526.75 837.88,-1532.75 831.88,-1538.75 825.88,-1538.75"/>
<path fill="#e4f3e9" stroke="none" d="M250.88,-1433.75C250.88,-1433.75 824.88,-1433.75 824.88,-1433.75 830.88,-1433.75 836.88,-1439.75 836.88,-1445.75 836.88,-1445.75 836.88,-1525.75 836.88,-1525.75 836.88,-1531.75 830.88,-1537.75 824.88,-1537.75 824.88,-1537.75 250.88,-1537.75 250.88,-1537.75 244.88,-1537.75 238.88,-1531.75 238.88,-1525.75 238.88,-1525.75 238.88,-1445.75 238.88,-1445.75 238.88,-1439.75 244.88,-1433.75 250.88,-1433.75"/>
<polygon fill="#2e944a" stroke="none" points="243.88,-1493.75 243.88,-1532.75 831.88,-1532.75 831.88,-1493.75 243.88,-1493.75"/>
<text xml:space="preserve" text-anchor="start" x="255.88" y="-1509.4" font-family="Helvetica,sans-Serif" font-size="11.00"> &#160;&#160;&#160;&#160;&#160;&#160;&#160;&#160;&#160;&#160;&#160;&#160;&#160;&#160;&#160;</text>
<text xml:space="preserve" text-anchor="start" x="303.88" y="-1509.4" font-family="Helvetica,sans-Serif" font-weight="bold" font-size="13.00" fill="white">python &#45;m src</text>
<text xml:space="preserve" text-anchor="start" x="392.38" y="-1509.4" font-family="Helvetica,sans-Serif" font-size="11.00"> &#160;&#160;&#160;&#160;&#160;&#160;&#160;&#160;&#160;&#160;&#160;&#160;&#160;&#160;&#160;</text>
<text xml:space="preserve" text-anchor="start" x="440.38" y="-1509.4" font-family="Helvetica,sans-Serif" font-size="10.00" fill="#b8dfc5"> &#160;common.py → node.py / cluster.py / project.py → generate.py → steps_io.py</text>
<text xml:space="preserve" text-anchor="start" x="783.88" y="-1509.4" font-family="Helvetica,sans-Serif" font-size="11.00"> &#160;&#160;&#160;&#160;&#160;&#160;&#160;&#160;&#160;&#160;&#160;</text>
<polygon fill="#c2e4cd" stroke="none" points="243.88,-1438.75 243.88,-1489.75 328.52,-1489.75 328.52,-1438.75 243.88,-1438.75"/>
<text xml:space="preserve" text-anchor="start" x="268.95" y="-1470.3" font-family="Helvetica,sans-Serif" font-size="11.00">Load &amp;</text>
<text xml:space="preserve" text-anchor="start" x="267.07" y="-1459.3" font-family="Helvetica,sans-Serif" font-size="11.00">Validate</text>
<text xml:space="preserve" text-anchor="start" x="268.57" y="-1450.2" font-family="Helvetica,sans-Serif" font-size="9.00" fill="#555555">Pydantic</text>
<polygon fill="#e4f3e9" stroke="none" points="332.52,-1438.75 332.52,-1489.75 394.66,-1489.75 394.66,-1438.75 332.52,-1438.75"/>
<text xml:space="preserve" text-anchor="start" x="355.71" y="-1458.42" font-family="Helvetica,sans-Serif" font-size="16.00" fill="#2e944a">→</text>
<polygon fill="#c2e4cd" stroke="none" points="398.66,-1438.75 398.66,-1489.75 505.05,-1489.75 505.05,-1438.75 398.66,-1438.75"/>
<text xml:space="preserve" text-anchor="start" x="429.73" y="-1470.3" font-family="Helvetica,sans-Serif" font-size="11.00">Compute</text>
<text xml:space="preserve" text-anchor="start" x="437.98" y="-1459.3" font-family="Helvetica,sans-Serif" font-size="11.00">Steps</text>
<text xml:space="preserve" text-anchor="start" x="421.86" y="-1450.2" font-family="Helvetica,sans-Serif" font-size="9.00" fill="#555555">flat ordered list</text>
<polygon fill="#e4f3e9" stroke="none" points="509.05,-1438.75 509.05,-1489.75 571.2,-1489.75 571.2,-1438.75 509.05,-1438.75"/>
<text xml:space="preserve" text-anchor="start" x="532.25" y="-1458.42" font-family="Helvetica,sans-Serif" font-size="16.00" fill="#2e944a">→</text>
<polygon fill="#c2e4cd" stroke="none" points="575.2,-1438.75 575.2,-1489.75 680.09,-1489.75 680.09,-1438.75 575.2,-1438.75"/>
<text xml:space="preserve" text-anchor="start" x="604.39" y="-1470.3" font-family="Helvetica,sans-Serif" font-size="11.00">Render &amp;</text>
<text xml:space="preserve" text-anchor="start" x="608.52" y="-1459.3" font-family="Helvetica,sans-Serif" font-size="11.00">Validate</text>
<text xml:space="preserve" text-anchor="start" x="598.39" y="-1450.2" font-family="Helvetica,sans-Serif" font-size="9.00" fill="#555555">Jinja2 + YAML</text>
<polygon fill="#e4f3e9" stroke="none" points="684.09,-1438.75 684.09,-1489.75 746.23,-1489.75 746.23,-1438.75 684.09,-1438.75"/>
<text xml:space="preserve" text-anchor="start" x="707.29" y="-1458.42" font-family="Helvetica,sans-Serif" font-size="16.00" fill="#2e944a">→</text>
<polygon fill="#c2e4cd" stroke="none" points="750.23,-1438.75 750.23,-1489.75 831.88,-1489.75 831.88,-1438.75 750.23,-1438.75"/>
<text xml:space="preserve" text-anchor="start" x="778.3" y="-1470.3" font-family="Helvetica,sans-Serif" font-size="11.00">Write</text>
<text xml:space="preserve" text-anchor="start" x="773.43" y="-1459.3" font-family="Helvetica,sans-Serif" font-size="11.00">Manual</text>
<text xml:space="preserve" text-anchor="start" x="773.8" y="-1450.2" font-family="Helvetica,sans-Serif" font-size="9.00" fill="#555555">+ Tekton</text>
<path fill="none" stroke="#2e944a" stroke-width="2" d="M250.88,-1433.75C250.88,-1433.75 824.88,-1433.75 824.88,-1433.75 830.88,-1433.75 836.88,-1439.75 836.88,-1445.75 836.88,-1445.75 836.88,-1525.75 836.88,-1525.75 836.88,-1531.75 830.88,-1537.75 824.88,-1537.75 824.88,-1537.75 250.88,-1537.75 250.88,-1537.75 244.88,-1537.75 238.88,-1531.75 238.88,-1525.75 238.88,-1525.75 238.88,-1445.75 238.88,-1445.75 238.88,-1439.75 244.88,-1433.75 250.88,-1433.75"/>
</g>
<!-- test_suite&#45;&gt;generator -->
<g id="edge9" class="edge">
<title>test_suite&#45;&gt;generator</title>
<path fill="none" stroke="#4a5568" stroke-width="1.5" d="M283.8,-1611.77C328.35,-1589.85 378.48,-1565.18 422.36,-1543.59"/>
<polygon fill="#4a5568" stroke="#4a5568" stroke-width="1.5" points="423.49,-1546.54 430.17,-1539.74 420.71,-1540.89 423.49,-1546.54"/>
</g>
<!-- gen_config -->
<g id="node3" class="node">
<title>gen_config</title>
<path fill="#f8f9fa" stroke="none" stroke-width="1.5" d="M975.88,-1713.75C975.88,-1713.75 765.88,-1713.75 765.88,-1713.75 759.88,-1713.75 753.88,-1707.75 753.88,-1701.75 753.88,-1701.75 753.88,-1644.75 753.88,-1644.75 753.88,-1638.75 759.88,-1632.75 765.88,-1632.75 765.88,-1632.75 975.88,-1632.75 975.88,-1632.75 981.88,-1632.75 987.88,-1638.75 987.88,-1644.75 987.88,-1644.75 987.88,-1701.75 987.88,-1701.75 987.88,-1707.75 981.88,-1713.75 975.88,-1713.75"/>
<path fill="#fdf6e0" stroke="none" d="M766.88,-1633.75C766.88,-1633.75 974.88,-1633.75 974.88,-1633.75 980.88,-1633.75 986.88,-1639.75 986.88,-1645.75 986.88,-1645.75 986.88,-1700.75 986.88,-1700.75 986.88,-1706.75 980.88,-1712.75 974.88,-1712.75 974.88,-1712.75 766.88,-1712.75 766.88,-1712.75 760.88,-1712.75 754.88,-1706.75 754.88,-1700.75 754.88,-1700.75 754.88,-1645.75 754.88,-1645.75 754.88,-1639.75 760.88,-1633.75 766.88,-1633.75"/>
<polygon fill="#d4960a" stroke="none" points="755.88,-1676.75 755.88,-1711.75 985.88,-1711.75 985.88,-1676.75 755.88,-1676.75"/>
<text xml:space="preserve" text-anchor="start" x="773.75" y="-1690.4" font-family="Helvetica,sans-Serif" font-size="11.00"> &#160;&#160;&#160;&#160;&#160;&#160;&#160;&#160;&#160;&#160;&#160;&#160;&#160;&#160;&#160;</text>
<text xml:space="preserve" text-anchor="start" x="821.75" y="-1690.4" font-family="Helvetica,sans-Serif" font-weight="bold" font-size="13.00" fill="white">Generator Config</text>
<text xml:space="preserve" text-anchor="start" x="932" y="-1690.4" font-family="Helvetica,sans-Serif" font-size="11.00"> &#160;&#160;&#160;&#160;&#160;&#160;&#160;&#160;&#160;&#160;&#160;</text>
<text xml:space="preserve" text-anchor="start" x="765.88" y="-1657.3" font-family="Helvetica,sans-Serif" font-size="11.00"> &#160;&#160;&#160;&#160;&#160;&#160;&#160;&#160;&#160;&#160;&#160;&#160;&#160;&#160;&#160;</text>
<text xml:space="preserve" text-anchor="start" x="813.88" y="-1657.3" font-family="Helvetica,sans-Serif" font-weight="bold" font-size="11.00">config.yaml</text>
<text xml:space="preserve" text-anchor="start" x="765.88" y="-1646.3" font-family="Helvetica,sans-Serif" font-size="11.00"> &#160;&#160;&#160;&#160;&#160;&#160;&#160;&#160;&#160;&#160;&#160;&#160;&#160;&#160;&#160;</text>
<text xml:space="preserve" text-anchor="start" x="813.88" y="-1646.3" font-family="Helvetica,sans-Serif" font-size="10.00" fill="#555555">default timeouts, tool images</text>
<text xml:space="preserve" text-anchor="start" x="939.88" y="-1646.3" font-family="Helvetica,sans-Serif" font-size="11.00"> &#160;&#160;&#160;&#160;&#160;&#160;&#160;&#160;&#160;&#160;&#160;</text>
<path fill="none" stroke="#d4960a" stroke-width="2" d="M766.88,-1633.75C766.88,-1633.75 974.88,-1633.75 974.88,-1633.75 980.88,-1633.75 986.88,-1639.75 986.88,-1645.75 986.88,-1645.75 986.88,-1700.75 986.88,-1700.75 986.88,-1706.75 980.88,-1712.75 974.88,-1712.75 974.88,-1712.75 766.88,-1712.75 766.88,-1712.75 760.88,-1712.75 754.88,-1706.75 754.88,-1700.75 754.88,-1700.75 754.88,-1645.75 754.88,-1645.75 754.88,-1639.75 760.88,-1633.75 766.88,-1633.75"/>
</g>
<!-- cluster_config&#45;&gt;gen_config -->
<!-- cluster_config&#45;&gt;generator -->
<g id="edge10" class="edge">
<title>cluster_config&#45;&gt;generator</title>
<path fill="none" stroke="#4a5568" stroke-width="1.5" d="M537.88,-1627.35C537.88,-1603.99 537.88,-1575.07 537.88,-1549.54"/>
<polygon fill="#4a5568" stroke="#4a5568" stroke-width="1.5" points="541.03,-1549.73 537.88,-1540.73 534.73,-1549.73 541.03,-1549.73"/>
</g>
<!-- gen_config&#45;&gt;generator -->
<g id="edge11" class="edge">
<title>gen_config&#45;&gt;generator</title>
<path fill="none" stroke="#4a5568" stroke-width="1.5" d="M800.25,-1632.91C753.88,-1607.08 692.46,-1572.86 640.71,-1544.03"/>
<polygon fill="#4a5568" stroke="#4a5568" stroke-width="1.5" points="642.54,-1541.45 633.14,-1539.82 639.47,-1546.95 642.54,-1541.45"/>
</g>
<!-- build_output -->
<g id="node5" class="node">
<title>build_output</title>
<path fill="#f8f9fa" stroke="none" stroke-width="1.5" d="M783.75,-1359.75C783.75,-1359.75 292,-1359.75 292,-1359.75 286,-1359.75 280,-1353.75 280,-1347.75 280,-1347.75 280,-1252.75 280,-1252.75 280,-1246.75 286,-1240.75 292,-1240.75 292,-1240.75 783.75,-1240.75 783.75,-1240.75 789.75,-1240.75 795.75,-1246.75 795.75,-1252.75 795.75,-1252.75 795.75,-1347.75 795.75,-1347.75 795.75,-1353.75 789.75,-1359.75 783.75,-1359.75"/>
<path fill="#f0e6f8" stroke="none" d="M293,-1241.75C293,-1241.75 782.75,-1241.75 782.75,-1241.75 788.75,-1241.75 794.75,-1247.75 794.75,-1253.75 794.75,-1253.75 794.75,-1346.75 794.75,-1346.75 794.75,-1352.75 788.75,-1358.75 782.75,-1358.75 782.75,-1358.75 293,-1358.75 293,-1358.75 287,-1358.75 281,-1352.75 281,-1346.75 281,-1346.75 281,-1253.75 281,-1253.75 281,-1247.75 287,-1241.75 293,-1241.75"/>
<polygon fill="#7e2ec8" stroke="none" points="286,-1314.75 286,-1353.75 789.75,-1353.75 789.75,-1314.75 286,-1314.75"/>
<text xml:space="preserve" text-anchor="start" x="477.88" y="-1330.4" font-family="Helvetica,sans-Serif" font-size="11.00"> &#160;&#160;&#160;&#160;&#160;&#160;&#160;&#160;&#160;&#160;&#160;&#160;&#160;&#160;&#160;</text>
<text xml:space="preserve" text-anchor="start" x="525.88" y="-1330.4" font-family="Helvetica,sans-Serif" font-weight="bold" font-size="13.00" fill="white">build/</text>
<text xml:space="preserve" text-anchor="start" x="561.88" y="-1330.4" font-family="Helvetica,sans-Serif" font-size="11.00"> &#160;&#160;&#160;&#160;&#160;&#160;&#160;&#160;&#160;&#160;&#160;</text>
<polygon fill="#e2d0f0" stroke="none" points="286,-1246.75 286,-1310.75 549,-1310.75 549,-1246.75 286,-1246.75"/>
<text xml:space="preserve" text-anchor="start" x="396.88" y="-1291.3" font-family="Helvetica,sans-Serif" font-weight="bold" font-size="11.00">manual/</text>
<text xml:space="preserve" text-anchor="start" x="336.88" y="-1280.3" font-family="Helvetica,sans-Serif" font-size="11.00"> &#160;&#160;&#160;&#160;&#160;&#160;&#160;&#160;&#160;&#160;&#160;&#160;&#160;&#160;&#160;&#160;&#160;&#160;&#160;</text>
<text xml:space="preserve" text-anchor="start" x="396.88" y="-1280.3" font-family="Helvetica,sans-Serif" font-size="10.00" fill="#555555">manifests/*.yaml (data)</text>
<text xml:space="preserve" text-anchor="start" x="329.75" y="-1269.3" font-family="Helvetica,sans-Serif" font-size="11.00"> &#160;&#160;&#160;&#160;&#160;&#160;&#160;&#160;&#160;&#160;&#160;&#160;&#160;&#160;&#160;&#160;&#160;&#160;&#160;</text>
<text xml:space="preserve" text-anchor="start" x="389.75" y="-1269.3" font-family="Helvetica,sans-Serif" font-size="10.00" fill="#555555">NNN&#45;*.sh scripts (actions)</text>
<text xml:space="preserve" text-anchor="start" x="296" y="-1258.3" font-family="Helvetica,sans-Serif" font-size="11.00"> &#160;&#160;&#160;&#160;&#160;&#160;&#160;&#160;&#160;&#160;&#160;&#160;&#160;&#160;&#160;&#160;&#160;&#160;&#160;</text>
<text xml:space="preserve" text-anchor="start" x="356" y="-1258.3" font-family="Helvetica,sans-Serif" font-size="9.00" fill="#888888">scripts in root, manifests in subdir</text>
<text xml:space="preserve" text-anchor="start" x="491" y="-1258.3" font-family="Helvetica,sans-Serif" font-size="11.00"> &#160;&#160;&#160;&#160;&#160;&#160;&#160;&#160;&#160;&#160;&#160;&#160;&#160;&#160;&#160;</text>
<polygon fill="#e2d0f0" stroke="none" points="553,-1246.75 553,-1310.75 789.75,-1310.75 789.75,-1246.75 553,-1246.75"/>
<text xml:space="preserve" text-anchor="start" x="653.38" y="-1285.8" font-family="Helvetica,sans-Serif" font-weight="bold" font-size="11.00">tekton/</text>
<text xml:space="preserve" text-anchor="start" x="581" y="-1274.8" font-family="Helvetica,sans-Serif" font-size="11.00"> &#160;&#160;&#160;&#160;&#160;&#160;&#160;&#160;&#160;&#160;&#160;&#160;&#160;&#160;&#160;&#160;&#160;&#160;&#160;</text>
<text xml:space="preserve" text-anchor="start" x="641" y="-1274.8" font-family="Helvetica,sans-Serif" font-size="10.00" fill="#555555">pipelines, tasks, pipelinerun</text>
<text xml:space="preserve" text-anchor="start" x="563" y="-1263.8" font-family="Helvetica,sans-Serif" font-size="11.00"> &#160;&#160;&#160;&#160;&#160;&#160;&#160;&#160;&#160;&#160;&#160;&#160;&#160;&#160;&#160;&#160;&#160;&#160;&#160;</text>
<text xml:space="preserve" text-anchor="start" x="623" y="-1263.8" font-family="Helvetica,sans-Serif" font-size="9.00" fill="#888888">derived from same step list</text>
<text xml:space="preserve" text-anchor="start" x="731.75" y="-1263.8" font-family="Helvetica,sans-Serif" font-size="11.00"> &#160;&#160;&#160;&#160;&#160;&#160;&#160;&#160;&#160;&#160;&#160;&#160;&#160;&#160;&#160;</text>
<path fill="none" stroke="#7e2ec8" stroke-width="2" d="M293,-1241.75C293,-1241.75 782.75,-1241.75 782.75,-1241.75 788.75,-1241.75 794.75,-1247.75 794.75,-1253.75 794.75,-1253.75 794.75,-1346.75 794.75,-1346.75 794.75,-1352.75 788.75,-1358.75 782.75,-1358.75 782.75,-1358.75 293,-1358.75 293,-1358.75 287,-1358.75 281,-1352.75 281,-1346.75 281,-1346.75 281,-1253.75 281,-1253.75 281,-1247.75 287,-1241.75 293,-1241.75"/>
</g>
<!-- generator&#45;&gt;build_output -->
<g id="edge12" class="edge">
<title>generator&#45;&gt;build_output</title>
<path fill="none" stroke="#4a5568" stroke-width="1.5" d="M537.88,-1433.15C537.88,-1413.74 537.88,-1391.34 537.88,-1370.58"/>
<polygon fill="#4a5568" stroke="#4a5568" stroke-width="1.5" points="541.03,-1370.84 537.88,-1361.84 534.73,-1370.84 541.03,-1370.84"/>
</g>
<!-- apply_configmap -->
<g id="node6" class="node">
<title>apply_configmap</title>
<path fill="#ffe8b8" stroke="#cc8a00" stroke-width="1.5" d="M593.5,-1098.75C593.5,-1098.75 482.25,-1098.75 482.25,-1098.75 476.25,-1098.75 470.25,-1092.75 470.25,-1086.75 470.25,-1086.75 470.25,-1074.75 470.25,-1074.75 470.25,-1068.75 476.25,-1062.75 482.25,-1062.75 482.25,-1062.75 593.5,-1062.75 593.5,-1062.75 599.5,-1062.75 605.5,-1068.75 605.5,-1074.75 605.5,-1074.75 605.5,-1086.75 605.5,-1086.75 605.5,-1092.75 599.5,-1098.75 593.5,-1098.75"/>
<text xml:space="preserve" text-anchor="start" x="484.25" y="-1076.33" font-family="Helvetica,sans-Serif" font-weight="bold" font-size="14.00" fill="#996600">1</text>
<text xml:space="preserve" text-anchor="start" x="503.75" y="-1077.05" font-family="Helvetica,sans-Serif" font-size="11.00"> &#160;Apply ConfigMap</text>
</g>
<!-- build_output&#45;&gt;apply_configmap -->
<g id="edge13" class="edge">
<title>build_output&#45;&gt;apply_configmap</title>
<path fill="none" stroke="#4a5568" stroke-width="1.5" d="M537.88,-1240.96C537.88,-1226.87 537.88,-1211.31 537.88,-1195.62"/>
<polygon fill="#4a5568" stroke="#4a5568" stroke-width="1.5" points="541.03,-1196.02 537.88,-1187.02 534.73,-1196.02 541.03,-1196.02"/>
<text xml:space="preserve" text-anchor="start" x="537.88" y="-1196.25" font-family="Helvetica,sans-Serif" font-weight="bold" font-size="10.00">oc apply &#45;f</text>
</g>
<!-- create_builder -->
<g id="node7" class="node">
<title>create_builder</title>
<path fill="#ffe8b8" stroke="#cc8a00" stroke-width="1.5" d="M598.75,-989.75C598.75,-989.75 477,-989.75 477,-989.75 471,-989.75 465,-983.75 465,-977.75 465,-977.75 465,-965.75 465,-965.75 465,-959.75 471,-953.75 477,-953.75 477,-953.75 598.75,-953.75 598.75,-953.75 604.75,-953.75 610.75,-959.75 610.75,-965.75 610.75,-965.75 610.75,-977.75 610.75,-977.75 610.75,-983.75 604.75,-989.75 598.75,-989.75"/>
<text xml:space="preserve" text-anchor="start" x="479" y="-967.33" font-family="Helvetica,sans-Serif" font-weight="bold" font-size="14.00" fill="#996600">2</text>
<text xml:space="preserve" text-anchor="start" x="498.5" y="-968.05" font-family="Helvetica,sans-Serif" font-size="11.00"> &#160;Create Builder Pod</text>
</g>
<!-- apply_configmap&#45;&gt;create_builder -->
<g id="edge3" class="edge">
<title>apply_configmap&#45;&gt;create_builder</title>
<path fill="none" stroke="#4a5568" stroke-width="1.5" d="M537.88,-1062.08C537.88,-1045.66 537.88,-1020.91 537.88,-1001.63"/>
<polygon fill="#4a5568" stroke="#4a5568" stroke-width="1.5" points="541.03,-1001.72 537.88,-992.72 534.73,-1001.72 541.03,-1001.72"/>
</g>
<!-- build_binaries -->
<g id="node8" class="node">
<title>build_binaries</title>
<path fill="#ffe8b8" stroke="#cc8a00" stroke-width="1.5" d="M585.62,-880.75C585.62,-880.75 490.12,-880.75 490.12,-880.75 484.12,-880.75 478.12,-874.75 478.12,-868.75 478.12,-868.75 478.12,-856.75 478.12,-856.75 478.12,-850.75 484.12,-844.75 490.12,-844.75 490.12,-844.75 585.62,-844.75 585.62,-844.75 591.62,-844.75 597.62,-850.75 597.62,-856.75 597.62,-856.75 597.62,-868.75 597.62,-868.75 597.62,-874.75 591.62,-880.75 585.62,-880.75"/>
<text xml:space="preserve" text-anchor="start" x="492.12" y="-858.33" font-family="Helvetica,sans-Serif" font-weight="bold" font-size="14.00" fill="#996600">3</text>
<text xml:space="preserve" text-anchor="start" x="511.62" y="-859.05" font-family="Helvetica,sans-Serif" font-size="11.00"> &#160;Build Binaries</text>
</g>
<!-- create_builder&#45;&gt;build_binaries -->
<g id="edge4" class="edge">
<title>create_builder&#45;&gt;build_binaries</title>
<path fill="none" stroke="#4a5568" stroke-width="1.5" d="M537.88,-953.08C537.88,-936.66 537.88,-911.91 537.88,-892.63"/>
<polygon fill="#4a5568" stroke="#4a5568" stroke-width="1.5" points="541.03,-892.72 537.88,-883.72 534.73,-892.72 541.03,-892.72"/>
</g>
<!-- test_execution -->
<g id="node9" class="node">
<title>test_execution</title>
<path fill="#f8f9fa" stroke="none" stroke-width="1.5" d="M820.5,-771.75C820.5,-771.75 255.25,-771.75 255.25,-771.75 249.25,-771.75 243.25,-765.75 243.25,-759.75 243.25,-759.75 243.25,-588.5 243.25,-588.5 243.25,-582.5 249.25,-576.5 255.25,-576.5 255.25,-576.5 820.5,-576.5 820.5,-576.5 826.5,-576.5 832.5,-582.5 832.5,-588.5 832.5,-588.5 832.5,-759.75 832.5,-759.75 832.5,-765.75 826.5,-771.75 820.5,-771.75"/>
<path fill="#e8eef8" stroke="none" d="M256.25,-577.5C256.25,-577.5 819.5,-577.5 819.5,-577.5 825.5,-577.5 831.5,-583.5 831.5,-589.5 831.5,-589.5 831.5,-758.75 831.5,-758.75 831.5,-764.75 825.5,-770.75 819.5,-770.75 819.5,-770.75 256.25,-770.75 256.25,-770.75 250.25,-770.75 244.25,-764.75 244.25,-758.75 244.25,-758.75 244.25,-589.5 244.25,-589.5 244.25,-583.5 250.25,-577.5 256.25,-577.5"/>
<polygon fill="#354999" stroke="none" points="249.25,-718 249.25,-765.75 826.5,-765.75 826.5,-718 249.25,-718"/>
<text xml:space="preserve" text-anchor="start" x="325.46" y="-737.45" font-family="Helvetica,sans-Serif" font-weight="bold" font-size="14.00" fill="white">4</text>
<text xml:space="preserve" text-anchor="start" x="461.38" y="-738.6" font-family="Helvetica,sans-Serif" font-weight="bold" font-size="12.00" fill="white"> &#160;Tests</text>
<text xml:space="preserve" text-anchor="start" x="626.54" y="-738.38" font-family="Helvetica,sans-Serif" font-size="10.00" fill="#9aa1cc"> &#160;in test_suite.yaml list order</text>
<polygon fill="#dde4f0" stroke="none" points="249.25,-620 249.25,-714 442.5,-714 442.5,-620 249.25,-620"/>
<text xml:space="preserve" text-anchor="start" x="271.62" y="-694.55" font-family="Helvetica,sans-Serif" font-size="11.00"> &#160;&#160;&#160;&#160;&#160;&#160;&#160;&#160;&#160;&#160;&#160;&#160;&#160;&#160;&#160;&#160;&#160;&#160;&#160;&#160;&#160;&#160;&#160;&#160;&#160;&#160;&#160;</text>
<text xml:space="preserve" text-anchor="start" x="355.62" y="-694.55" font-family="Helvetica,sans-Serif" font-weight="bold" font-size="11.00">scope: node</text>
<text xml:space="preserve" text-anchor="start" x="263" y="-683.55" font-family="Helvetica,sans-Serif" font-size="11.00"> &#160;&#160;&#160;&#160;&#160;&#160;&#160;&#160;&#160;&#160;&#160;&#160;&#160;&#160;&#160;&#160;&#160;&#160;&#160;&#160;&#160;&#160;&#160;&#160;&#160;&#160;&#160;</text>
<text xml:space="preserve" text-anchor="start" x="347" y="-683.55" font-family="Helvetica,sans-Serif" font-size="10.00" fill="#555555">fan out to ×N node</text>
<text xml:space="preserve" text-anchor="start" x="306.88" y="-673.5" font-family="Helvetica,sans-Serif" font-size="10.00" fill="#555555">pipelines (parallel)</text>
<text xml:space="preserve" text-anchor="start" x="259.25" y="-651.55" font-family="Helvetica,sans-Serif" font-size="11.00"> &#160;&#160;&#160;&#160;&#160;&#160;&#160;&#160;&#160;&#160;&#160;&#160;&#160;&#160;&#160;&#160;&#160;&#160;&#160;&#160;&#160;&#160;&#160;&#160;&#160;&#160;&#160;</text>
<text xml:space="preserve" text-anchor="start" x="343.25" y="-651.55" font-family="Courier,monospace" font-size="9.00">deploy DAG → wait</text>
<text xml:space="preserve" text-anchor="start" x="301.25" y="-642.45" font-family="Courier,monospace" font-size="9.00">→ run steps/sweep</text>
<text xml:space="preserve" text-anchor="start" x="273.12" y="-631.55" font-family="Courier,monospace" font-size="9.00">→ teardown DAG</text>
<text xml:space="preserve" text-anchor="start" x="346.62" y="-631.55" font-family="Helvetica,sans-Serif" font-size="11.00"> &#160;&#160;&#160;&#160;&#160;&#160;&#160;&#160;&#160;&#160;&#160;&#160;&#160;&#160;&#160;&#160;&#160;&#160;&#160;&#160;&#160;&#160;&#160;</text>
<polygon fill="#dde4f0" stroke="none" points="446.5,-620 446.5,-714 629.25,-714 629.25,-620 446.5,-620"/>
<text xml:space="preserve" text-anchor="start" x="458.75" y="-694.55" font-family="Helvetica,sans-Serif" font-size="11.00"> &#160;&#160;&#160;&#160;&#160;&#160;&#160;&#160;&#160;&#160;&#160;&#160;&#160;&#160;&#160;&#160;&#160;&#160;&#160;&#160;&#160;&#160;&#160;&#160;&#160;&#160;&#160;</text>
<text xml:space="preserve" text-anchor="start" x="542.75" y="-694.55" font-family="Helvetica,sans-Serif" font-weight="bold" font-size="11.00">scope: cluster</text>
<text xml:space="preserve" text-anchor="start" x="458" y="-683.55" font-family="Helvetica,sans-Serif" font-size="11.00"> &#160;&#160;&#160;&#160;&#160;&#160;&#160;&#160;&#160;&#160;&#160;&#160;&#160;&#160;&#160;&#160;&#160;&#160;&#160;&#160;&#160;&#160;&#160;&#160;&#160;&#160;&#160;</text>
<text xml:space="preserve" text-anchor="start" x="542" y="-683.55" font-family="Helvetica,sans-Serif" font-size="10.00" fill="#555555">orchestrate tasks</text>
<text xml:space="preserve" text-anchor="start" x="491.38" y="-673.5" font-family="Helvetica,sans-Serif" font-size="10.00" fill="#555555">across nodes directly</text>
<text xml:space="preserve" text-anchor="start" x="456.5" y="-651.55" font-family="Helvetica,sans-Serif" font-size="11.00"> &#160;&#160;&#160;&#160;&#160;&#160;&#160;&#160;&#160;&#160;&#160;&#160;&#160;&#160;&#160;&#160;&#160;&#160;&#160;&#160;&#160;&#160;&#160;&#160;&#160;&#160;&#160;</text>
<text xml:space="preserve" text-anchor="start" x="540.5" y="-651.55" font-family="Courier,monospace" font-size="9.00">node A (server)</text>
<text xml:space="preserve" text-anchor="start" x="493.25" y="-642.45" font-family="Courier,monospace" font-size="9.00">→ node B (client)</text>
<text xml:space="preserve" text-anchor="start" x="457.25" y="-631.55" font-family="Courier,monospace" font-size="9.00">→ collect results</text>
<text xml:space="preserve" text-anchor="start" x="546.5" y="-631.55" font-family="Helvetica,sans-Serif" font-size="11.00"> &#160;&#160;&#160;&#160;&#160;&#160;&#160;&#160;&#160;&#160;&#160;&#160;&#160;&#160;&#160;&#160;&#160;&#160;&#160;&#160;&#160;&#160;&#160;</text>
<polygon fill="#dde4f0" stroke="none" points="633.25,-620 633.25,-714 826.5,-714 826.5,-620 633.25,-620"/>
<text xml:space="preserve" text-anchor="start" x="650.38" y="-694.55" font-family="Helvetica,sans-Serif" font-size="11.00"> &#160;&#160;&#160;&#160;&#160;&#160;&#160;&#160;&#160;&#160;&#160;&#160;&#160;&#160;&#160;&#160;&#160;&#160;&#160;&#160;&#160;&#160;&#160;&#160;&#160;&#160;&#160;</text>
<text xml:space="preserve" text-anchor="start" x="734.38" y="-694.55" font-family="Helvetica,sans-Serif" font-weight="bold" font-size="11.00">scope: project</text>
<text xml:space="preserve" text-anchor="start" x="653.75" y="-683.55" font-family="Helvetica,sans-Serif" font-size="11.00"> &#160;&#160;&#160;&#160;&#160;&#160;&#160;&#160;&#160;&#160;&#160;&#160;&#160;&#160;&#160;&#160;&#160;&#160;&#160;&#160;&#160;&#160;&#160;&#160;&#160;&#160;&#160;</text>
<text xml:space="preserve" text-anchor="start" x="737.75" y="-683.55" font-family="Helvetica,sans-Serif" font-size="10.00" fill="#555555">no node affinity,</text>
<text xml:space="preserve" text-anchor="start" x="693.12" y="-673.5" font-family="Helvetica,sans-Serif" font-size="10.00" fill="#555555">namespace&#45;level</text>
<text xml:space="preserve" text-anchor="start" x="643.25" y="-651.55" font-family="Helvetica,sans-Serif" font-size="11.00"> &#160;&#160;&#160;&#160;&#160;&#160;&#160;&#160;&#160;&#160;&#160;&#160;&#160;&#160;&#160;&#160;&#160;&#160;&#160;&#160;&#160;&#160;&#160;&#160;&#160;&#160;&#160;</text>
<text xml:space="preserve" text-anchor="start" x="727.25" y="-651.55" font-family="Courier,monospace" font-size="9.00">quota/RBAC checks</text>
<text xml:space="preserve" text-anchor="start" x="682.62" y="-642.45" font-family="Courier,monospace" font-size="9.00">→ network policies</text>
<text xml:space="preserve" text-anchor="start" x="649.25" y="-631.55" font-family="Courier,monospace" font-size="9.00">→ collect results</text>
<text xml:space="preserve" text-anchor="start" x="738.5" y="-631.55" font-family="Helvetica,sans-Serif" font-size="11.00"> &#160;&#160;&#160;&#160;&#160;&#160;&#160;&#160;&#160;&#160;&#160;&#160;&#160;&#160;&#160;&#160;&#160;&#160;&#160;&#160;&#160;&#160;&#160;</text>
<text xml:space="preserve" text-anchor="start" x="375.12" y="-596.55" font-family="Helvetica,sans-Serif" font-size="11.00"> &#160;&#160;&#160;&#160;&#160;&#160;&#160;&#160;&#160;&#160;&#160;&#160;&#160;&#160;&#160;&#160;&#160;&#160;&#160;&#160;&#160;&#160;&#160;</text>
<text xml:space="preserve" text-anchor="start" x="447.12" y="-596.55" font-family="Helvetica,sans-Serif" font-size="10.00" fill="#555555">per&#45;test onFailure: continue | skipTest | abort</text>
<text xml:space="preserve" text-anchor="start" x="640.62" y="-596.55" font-family="Helvetica,sans-Serif" font-size="11.00"> &#160;&#160;&#160;&#160;&#160;&#160;&#160;&#160;&#160;&#160;&#160;&#160;&#160;&#160;&#160;&#160;&#160;&#160;&#160;</text>
<path fill="none" stroke="#354999" stroke-width="2" d="M256.25,-577.5C256.25,-577.5 819.5,-577.5 819.5,-577.5 825.5,-577.5 831.5,-583.5 831.5,-589.5 831.5,-589.5 831.5,-758.75 831.5,-758.75 831.5,-764.75 825.5,-770.75 819.5,-770.75 819.5,-770.75 256.25,-770.75 256.25,-770.75 250.25,-770.75 244.25,-764.75 244.25,-758.75 244.25,-758.75 244.25,-589.5 244.25,-589.5 244.25,-583.5 250.25,-577.5 256.25,-577.5"/>
</g>
<!-- build_binaries&#45;&gt;test_execution -->
<g id="edge5" class="edge">
<title>build_binaries&#45;&gt;test_execution</title>
<path fill="none" stroke="#4a5568" stroke-width="1.5" d="M537.88,-844.19C537.88,-829.32 537.88,-806.65 537.88,-782.69"/>
<polygon fill="#4a5568" stroke="#4a5568" stroke-width="1.5" points="541.03,-782.88 537.88,-773.88 534.73,-782.88 541.03,-782.88"/>
</g>
<!-- create_aggregator -->
<g id="node10" class="node">
<title>create_aggregator</title>
<path fill="#ffe8b8" stroke="#cc8a00" stroke-width="1.5" d="M597.25,-494C597.25,-494 478.5,-494 478.5,-494 472.5,-494 466.5,-488 466.5,-482 466.5,-482 466.5,-470 466.5,-470 466.5,-464 472.5,-458 478.5,-458 478.5,-458 597.25,-458 597.25,-458 603.25,-458 609.25,-464 609.25,-470 609.25,-470 609.25,-482 609.25,-482 609.25,-488 603.25,-494 597.25,-494"/>
<text xml:space="preserve" text-anchor="start" x="480.5" y="-471.57" font-family="Helvetica,sans-Serif" font-weight="bold" font-size="14.00" fill="#996600">5</text>
<text xml:space="preserve" text-anchor="start" x="500" y="-472.3" font-family="Helvetica,sans-Serif" font-size="11.00"> &#160;Create Aggregator</text>
</g>
<!-- test_execution&#45;&gt;create_aggregator -->
<g id="edge6" class="edge">
<title>test_execution&#45;&gt;create_aggregator</title>
<path fill="none" stroke="#4a5568" stroke-width="1.5" stroke-dasharray="5,2" d="M537.88,-576.79C537.88,-550.76 537.88,-524.57 537.88,-505.55"/>
<polygon fill="#4a5568" stroke="#4a5568" stroke-width="1.5" points="541.03,-505.71 537.88,-496.71 534.73,-505.71 541.03,-505.71"/>
</g>
<!-- aggregate -->
<g id="node11" class="node">
<title>aggregate</title>
<path fill="#ffe8b8" stroke="#cc8a00" stroke-width="1.5" d="M596.88,-385C596.88,-385 478.88,-385 478.88,-385 472.88,-385 466.88,-379 466.88,-373 466.88,-373 466.88,-361 466.88,-361 466.88,-355 472.88,-349 478.88,-349 478.88,-349 596.88,-349 596.88,-349 602.88,-349 608.88,-355 608.88,-361 608.88,-361 608.88,-373 608.88,-373 608.88,-379 602.88,-385 596.88,-385"/>
<text xml:space="preserve" text-anchor="start" x="480.88" y="-362.57" font-family="Helvetica,sans-Serif" font-weight="bold" font-size="14.00" fill="#996600">6</text>
<text xml:space="preserve" text-anchor="start" x="500.38" y="-363.3" font-family="Helvetica,sans-Serif" font-size="11.00"> &#160;Aggregate Results</text>
</g>
<!-- create_aggregator&#45;&gt;aggregate -->
<g id="edge7" class="edge">
<title>create_aggregator&#45;&gt;aggregate</title>
<path fill="none" stroke="#4a5568" stroke-width="1.5" d="M537.88,-457.33C537.88,-440.91 537.88,-416.16 537.88,-396.88"/>
<polygon fill="#4a5568" stroke="#4a5568" stroke-width="1.5" points="541.03,-396.97 537.88,-387.97 534.73,-396.97 541.03,-396.97"/>
</g>
<!-- cleanup_step -->
<g id="node12" class="node">
<title>cleanup_step</title>
<path fill="#ffe8b8" stroke="#cc8a00" stroke-width="1.5" d="M572.88,-276C572.88,-276 502.88,-276 502.88,-276 496.88,-276 490.88,-270 490.88,-264 490.88,-264 490.88,-252 490.88,-252 490.88,-246 496.88,-240 502.88,-240 502.88,-240 572.88,-240 572.88,-240 578.88,-240 584.88,-246 584.88,-252 584.88,-252 584.88,-264 584.88,-264 584.88,-270 578.88,-276 572.88,-276"/>
<text xml:space="preserve" text-anchor="start" x="504.88" y="-253.57" font-family="Helvetica,sans-Serif" font-weight="bold" font-size="14.00" fill="#996600">7</text>
<text xml:space="preserve" text-anchor="start" x="524.38" y="-254.3" font-family="Helvetica,sans-Serif" font-size="11.00"> &#160;Cleanup</text>
</g>
<!-- aggregate&#45;&gt;cleanup_step -->
<g id="edge8" class="edge">
<title>aggregate&#45;&gt;cleanup_step</title>
<path fill="none" stroke="#4a5568" stroke-width="1.5" d="M537.88,-348.33C537.88,-331.91 537.88,-307.16 537.88,-287.88"/>
<polygon fill="#4a5568" stroke="#4a5568" stroke-width="1.5" points="541.03,-287.97 537.88,-278.97 534.73,-287.97 541.03,-287.97"/>
</g>
<!-- results -->
<g id="node13" class="node">
<title>results</title>
<path fill="#f8f9fa" stroke="none" stroke-width="1.5" d="M689.88,-139C689.88,-139 385.88,-139 385.88,-139 379.88,-139 373.88,-133 373.88,-127 373.88,-127 373.88,-12 373.88,-12 373.88,-6 379.88,0 385.88,0 385.88,0 689.88,0 689.88,0 695.88,0 701.88,-6 701.88,-12 701.88,-12 701.88,-127 701.88,-127 701.88,-133 695.88,-139 689.88,-139"/>
<path fill="#e4f3e5" stroke="none" d="M386.88,-1C386.88,-1 688.88,-1 688.88,-1 694.88,-1 700.88,-7 700.88,-13 700.88,-13 700.88,-126 700.88,-126 700.88,-132 694.88,-138 688.88,-138 688.88,-138 386.88,-138 386.88,-138 380.88,-138 374.88,-132 374.88,-126 374.88,-126 374.88,-13 374.88,-13 374.88,-7 380.88,-1 386.88,-1"/>
<polygon fill="#2a7030" stroke="none" points="375.88,-98 375.88,-137 699.88,-137 699.88,-98 375.88,-98"/>
<text xml:space="preserve" text-anchor="start" x="427.62" y="-113.65" font-family="Helvetica,sans-Serif" font-size="11.00"> &#160;&#160;&#160;&#160;&#160;&#160;&#160;&#160;&#160;&#160;&#160;&#160;&#160;&#160;&#160;</text>
<text xml:space="preserve" text-anchor="start" x="475.62" y="-113.65" font-family="Helvetica,sans-Serif" font-weight="bold" font-size="13.00" fill="white">RESULTS</text>
<text xml:space="preserve" text-anchor="start" x="537.12" y="-113.65" font-family="Helvetica,sans-Serif" font-size="11.00"> &#160;&#160;&#160;&#160;&#160;&#160;&#160;&#160;&#160;&#160;&#160;&#160;&#160;&#160;&#160;</text>
<text xml:space="preserve" text-anchor="start" x="585.12" y="-113.65" font-family="Helvetica,sans-Serif" font-size="10.00" fill="#a0d4a3"> &#160;PVC</text>
<text xml:space="preserve" text-anchor="start" x="612.12" y="-113.65" font-family="Helvetica,sans-Serif" font-size="11.00"> &#160;&#160;&#160;&#160;&#160;&#160;&#160;&#160;&#160;&#160;&#160;</text>
<text xml:space="preserve" text-anchor="start" x="387.88" y="-76.55" font-family="Helvetica,sans-Serif" font-size="11.00"> &#160;&#160;&#160;&#160;&#160;&#160;&#160;&#160;&#160;&#160;&#160;&#160;&#160;&#160;&#160;</text>
<text xml:space="preserve" text-anchor="start" x="435.88" y="-76.55" font-family="Courier,monospace" font-size="10.00">&lt;basePath&gt;/&lt;pipeline&#45;run&#45;name&gt;/</text>
<text xml:space="preserve" text-anchor="start" x="387.88" y="-66.5" font-family="Courier,monospace" font-size="10.00">├── binaries/&lt;test&gt;/test.bin</text>
<text xml:space="preserve" text-anchor="start" x="387.88" y="-56.5" font-family="Courier,monospace" font-size="10.00">├── &lt;step_name&gt;/ &#160;&#160;&#160;&#160;&#160;&#160;&#160;&#160;&#160;&#160;&#160;&#160;&#160;</text>
<text xml:space="preserve" text-anchor="start" x="567.88" y="-56.5" font-family="Courier,monospace" font-size="10.00" fill="#666666"># flat, one per step</text>
<text xml:space="preserve" text-anchor="start" x="387.88" y="-46.5" font-family="Courier,monospace" font-size="10.00">│ &#160;&#160;&#160;&#160;junit.xml, benchmarks</text>
<text xml:space="preserve" text-anchor="start" x="387.88" y="-36.5" font-family="Courier,monospace" font-size="10.00">└── report/</text>
<text xml:space="preserve" text-anchor="start" x="387.88" y="-26.5" font-family="Courier,monospace" font-size="10.00"> &#160;&#160;&#160;&#160;&#160;summary.json &#160;&#160;&#160;&#160;&#160;&#160;&#160;&#160;&#160;&#160;&#160;&#160;</text>
<text xml:space="preserve" text-anchor="start" x="573.88" y="-26.5" font-family="Courier,monospace" font-size="10.00" fill="#666666"># aggregated</text>
<text xml:space="preserve" text-anchor="start" x="471.88" y="-15.55" font-family="Courier,monospace" font-size="10.00"> &#160;&#160;&#160;&#160;&#160;&#160;&#160;&#160;&#160;&#160;&#160;&#160;&#160;&#160;&#160;</text>
<text xml:space="preserve" text-anchor="start" x="567.88" y="-15.55" font-family="Helvetica,sans-Serif" font-size="11.00"> &#160;&#160;&#160;&#160;&#160;&#160;&#160;&#160;&#160;&#160;&#160;</text>
<path fill="none" stroke="#2a7030" stroke-width="2" d="M386.88,-1C386.88,-1 688.88,-1 688.88,-1 694.88,-1 700.88,-7 700.88,-13 700.88,-13 700.88,-126 700.88,-126 700.88,-132 694.88,-138 688.88,-138 688.88,-138 386.88,-138 386.88,-138 380.88,-138 374.88,-132 374.88,-126 374.88,-126 374.88,-13 374.88,-13 374.88,-7 380.88,-1 386.88,-1"/>
</g>
<!-- aggregate&#45;&gt;results -->
<g id="edge15" class="edge">
<title>aggregate&#45;&gt;results</title>
<path fill="none" stroke="#2a7030" stroke-width="1.5" d="M559.66,-348.29C578.08,-331.79 603.13,-305.39 613.88,-276 627.92,-237.6 625.76,-223.12 613.88,-184 610.19,-171.86 604.72,-159.83 598.37,-148.4"/>
<polygon fill="#2a7030" stroke="#2a7030" stroke-width="1.5" points="601.26,-147.1 594.01,-140.92 595.82,-150.28 601.26,-147.1"/>
<text xml:space="preserve" text-anchor="start" x="623.62" y="-254.5" font-family="Helvetica,sans-Serif" font-size="10.00" fill="#2a7030">write report</text>
</g>
<!-- cleanup_step&#45;&gt;results -->
</g>
</svg>
