<?xml version="1.0" encoding="UTF-8" standalone="no"?>
<!DOCTYPE svg PUBLIC "-//W3C//DTD SVG 1.1//EN"
 "http://www.w3.org/Graphics/SVG/1.1/DTD/svg11.dtd">
<!-- Generated by graphviz version 13.1.2 (20250808.2320)
 -->
<!-- Title: architecture Pages: 1 -->
<svg width="2238pt" height="3812pt"
 viewBox="0.00 0.00 2238.00 3812.00" xmlns="http://www.w3.org/2000/svg" xmlns:xlink="http://www.w3.org/1999/xlink">
<g id="graph0" class="graph" transform="scale(2.08333 2.08333) rotate(0) translate(43.2 1786.45)">
<title>architecture</title>
<polygon fill="white" stroke="none" points="-43.2,43.2 -43.2,-1786.45 1031.08,-1786.45 1031.08,43.2 -43.2,43.2"/>
<g id="clust2" class="cluster">
<title>cluster_execution</title>
<path fill="#fef8e1" stroke="#d4960a" stroke-width="2" d="M214.88,-184C214.88,-184 860.88,-184 860.88,-184 866.88,-184 872.88,-190 872.88,-196 872.88,-196 872.88,-1181.25 872.88,-1181.25 872.88,-1187.25 866.88,-1193.25 860.88,-1193.25 860.88,-1193.25 214.88,-1193.25 214.88,-1193.25 208.88,-1193.25 202.88,-1187.25 202.88,-1181.25 202.88,-1181.25 202.88,-196 202.88,-196 202.88,-190 208.88,-184 214.88,-184"/>
<text xml:space="preserve" text-anchor="start" x="210.88" y="-1176.95" font-family="Helvetica,sans-Serif" font-weight="bold" font-size="14.00">EXECUTION</text>
<text xml:space="preserve" text-anchor="start" x="290.38" y="-1176.95" font-family="Helvetica,sans-Serif" font-size="10.00" fill="#666666"> &#160;OpenShift / Tekton</text>
</g>
<g id="clust3" class="cluster">
<title>cluster_cluster_pipeline</title>
<path fill="#fdf0c8" stroke="#cc8a00" stroke-width="1.5" d="M234.88,-204C234.88,-204 840.88,-204 840.88,-204 846.88,-204 852.88,-210 852.88,-216 852.88,-216 852.88,-1137.5 852.88,-1137.5 852.88,-1143.5 846.88,-1149.5 840.88,-1149.5 840.88,-1149.5 234.88,-1149.5 234.88,-1149.5 228.88,-1149.5 222.88,-1143.5 222.88,-1137.5 222.88,-1137.5 222.88,-216 222.88,-216 222.88,-210 228.88,-204 234.88,-204"/>
<text xml:space="preserve" text-anchor="start" x="230.88" y="-1135.1" font-family="Helvetica,sans-Serif" font-weight="bold" font-size="12.00">Cluster Pipeline</text>
<text xml:space="preserve" text-anchor="start" x="320.88" y="-1135.1" font-family="Helvetica,sans-Serif" font-size="9.00" fill="#666666"> &#160;single flat pipeline, all tasks direct entries</text>
</g>
<g id="clust4" class="cluster">
<title>cluster_finally</title>
<path fill="white" stroke="#b37800" stroke-width="1.5" stroke-dasharray="5,2" d="M462.88,-224C462.88,-224 612.88,-224 612.88,-224 618.88,-224 624.88,-230 624.88,-236 624.88,-236 624.88,-519.5 624.88,-519.5 624.88,-525.5 618.88,-531.5 612.88,-531.5 612.88,-531.5 462.88,-531.5 462.88,-531.5 456.88,-531.5 450.88,-525.5 450.88,-519.5 450.88,-519.5 450.88,-236 450.88,-236 450.88,-230 456.88,-224 462.88,-224"/>
<text xml:space="preserve" text-anchor="start" x="458.88" y="-518.05" font-family="Helvetica,sans-Serif" font-style="italic" font-size="11.00">finally</text>
</g>
<!-- test_suite -->
<g id="node1" class="node">
<title>test_suite</title>
<path fill="#f8f9fa" stroke="none" stroke-width="1.5" d="M309.75,-1743.25C309.75,-1743.25 12,-1743.25 12,-1743.25 6,-1743.25 0,-1737.25 0,-1731.25 0,-1731.25 0,-1632.25 0,-1632.25 0,-1626.25 6,-1620.25 12,-1620.25 12,-1620.25 309.75,-1620.25 309.75,-1620.25 315.75,-1620.25 321.75,-1626.25 321.75,-1632.25 321.75,-1632.25 321.75,-1731.25 321.75,-1731.25 321.75,-1737.25 315.75,-1743.25 309.75,-1743.25"/>
<path fill="#e4edf8" stroke="none" d="M13,-1621.25C13,-1621.25 308.75,-1621.25 308.75,-1621.25 314.75,-1621.25 320.75,-1627.25 320.75,-1633.25 320.75,-1633.25 320.75,-1730.25 320.75,-1730.25 320.75,-1736.25 314.75,-1742.25 308.75,-1742.25 308.75,-1742.25 13,-1742.25 13,-1742.25 7,-1742.25 1,-1736.25 1,-1730.25 1,-1730.25 1,-1633.25 1,-1633.25 1,-1627.25 7,-1621.25 13,-1621.25"/>
<polygon fill="#3b78d1" stroke="none" points="2,-1706.25 2,-1741.25 319.75,-1741.25 319.75,-1706.25 2,-1706.25"/>
<text xml:space="preserve" text-anchor="start" x="87.38" y="-1719.9" font-family="Helvetica,sans-Serif" font-size="11.00"> &#160;&#160;&#160;&#160;&#160;&#160;&#160;&#160;&#160;&#160;&#160;&#160;&#160;&#160;&#160;</text>
<text xml:space="preserve" text-anchor="start" x="135.38" y="-1719.9" font-family="Helvetica,sans-Serif" font-weight="bold" font-size="13.00" fill="white">Test Suite</text>
<text xml:space="preserve" text-anchor="start" x="198.38" y="-1719.9" font-family="Helvetica,sans-Serif" font-size="11.00"> &#160;&#160;&#160;&#160;&#160;&#160;&#160;&#160;&#160;&#160;&#160;</text>
<text xml:space="preserve" text-anchor="start" x="12" y="-1686.8" font-family="Helvetica,sans-Serif" font-size="11.00"> &#160;&#160;&#160;&#160;&#160;&#160;&#160;&#160;&#160;&#160;&#160;&#160;&#160;&#160;&#160;</text>
<text xml:space="preserve" text-anchor="start" x="60" y="-1686.8" font-family="Helvetica,sans-Serif" font-weight="bold" font-size="11.00">test_suite.yaml</text>
<text xml:space="preserve" text-anchor="start" x="12" y="-1675.8" font-family="Helvetica,sans-Serif" font-size="11.00"> &#160;&#160;&#160;&#160;&#160;&#160;&#160;&#160;&#160;&#160;&#160;&#160;&#160;&#160;&#160;</text>
<text xml:space="preserve" text-anchor="start" x="60" y="-1675.8" font-family="Helvetica,sans-Serif" font-size="10.00" fill="#555555">ordered list: name, scope, onFailure</text>
<text xml:space="preserve" text-anchor="start" x="216" y="-1675.8" font-family="Helvetica,sans-Serif" font-size="11.00"> &#160;&#160;&#160;&#160;&#160;&#160;&#160;&#160;&#160;&#160;&#160;</text>
<text xml:space="preserve" text-anchor="start" x="12" y="-1644.8" font-family="Helvetica,sans-Serif" font-size="11.00"> &#160;&#160;&#160;&#160;&#160;&#160;&#160;&#160;&#160;&#160;&#160;&#160;&#160;&#160;&#160;</text>
<text xml:space="preserve" text-anchor="start" x="60" y="-1644.8" font-family="Helvetica,sans-Serif" font-weight="bold" font-size="11.00">&lt;test&gt;.yaml</text>
<text xml:space="preserve" text-anchor="start" x="120.75" y="-1644.8" font-family="Helvetica,sans-Serif" font-size="11.00"> + </text>
<text xml:space="preserve" text-anchor="start" x="133.5" y="-1644.8" font-family="Helvetica,sans-Serif" font-weight="bold" font-size="11.00">&lt;test&gt;.go</text>
<text xml:space="preserve" text-anchor="start" x="12" y="-1633.8" font-family="Helvetica,sans-Serif" font-size="11.00"> &#160;&#160;&#160;&#160;&#160;&#160;&#160;&#160;&#160;&#160;&#160;&#160;&#160;&#160;&#160;</text>
<text xml:space="preserve" text-anchor="start" x="60" y="-1633.8" font-family="Helvetica,sans-Serif" font-size="10.00" fill="#555555">DAG, server config, sweep params, Ginkgo logic</text>
<text xml:space="preserve" text-anchor="start" x="273.75" y="-1633.8" font-family="Helvetica,sans-Serif" font-size="11.00"> &#160;&#160;&#160;&#160;&#160;&#160;&#160;&#160;&#160;&#160;&#160;</text>
<path fill="none" stroke="#3b78d1" stroke-width="2" d="M13,-1621.25C13,-1621.25 308.75,-1621.25 308.75,-1621.25 314.75,-1621.25 320.75,-1627.25 320.75,-1633.25 320.75,-1633.25 320.75,-1730.25 320.75,-1730.25 320.75,-1736.25 314.75,-1742.25 308.75,-1742.25 308.75,-1742.25 13,-1742.25 13,-1742.25 7,-1742.25 1,-1736.25 1,-1730.25 1,-1730.25 1,-1633.25 1,-1633.25 1,-1627.25 7,-1621.25 13,-1621.25"/>
</g>
<!-- cluster_config -->
<g id="node2" class="node">
<title>cluster_config</title>
<path fill="#f8f9fa" stroke="none" stroke-width="1.5" d="M626.38,-1727.75C626.38,-1727.75 449.38,-1727.75 449.38,-1727.75 443.38,-1727.75 437.38,-1721.75 437.38,-1715.75 437.38,-1715.75 437.38,-1647.75 437.38,-1647.75 437.38,-1641.75 443.38,-1635.75 449.38,-1635.75 449.38,-1635.75 626.38,-1635.75 626.38,-1635.75 632.38,-1635.75 638.38,-1641.75 638.38,-1647.75 638.38,-1647.75 638.38,-1715.75 638.38,-1715.75 638.38,-1721.75 632.38,-1727.75 626.38,-1727.75"/>
<path fill="#fae8e6" stroke="none" d="M450.38,-1636.75C450.38,-1636.75 625.38,-1636.75 625.38,-1636.75 631.38,-1636.75 637.38,-1642.75 637.38,-1648.75 637.38,-1648.75 637.38,-1714.75 637.38,-1714.75 637.38,-1720.75 631.38,-1726.75 625.38,-1726.75 625.38,-1726.75 450.38,-1726.75 450.38,-1726.75 444.38,-1726.75 438.38,-1720.75 438.38,-1714.75 438.38,-1714.75 438.38,-1648.75 438.38,-1648.75 438.38,-1642.75 444.38,-1636.75 450.38,-1636.75"/>
<polygon fill="#d44332" stroke="none" points="439.38,-1690.75 439.38,-1725.75 636.38,-1725.75 636.38,-1690.75 439.38,-1690.75"/>
<text xml:space="preserve" text-anchor="start" x="449.38" y="-1704.4" font-family="Helvetica,sans-Serif" font-size="11.00"> &#160;&#160;&#160;&#160;&#160;&#160;&#160;&#160;&#160;&#160;&#160;&#160;&#160;&#160;&#160;</text>
<text xml:space="preserve" text-anchor="start" x="497.38" y="-1704.4" font-family="Helvetica,sans-Serif" font-weight="bold" font-size="13.00" fill="white">Cluster Config</text>
<text xml:space="preserve" text-anchor="start" x="590.38" y="-1704.4" font-family="Helvetica,sans-Serif" font-size="11.00"> &#160;&#160;&#160;&#160;&#160;&#160;&#160;&#160;&#160;&#160;&#160;</text>
<text xml:space="preserve" text-anchor="start" x="449.38" y="-1671.3" font-family="Helvetica,sans-Serif" font-size="11.00"> &#160;&#160;&#160;&#160;&#160;&#160;&#160;&#160;&#160;&#160;&#160;&#160;&#160;&#160;&#160;</text>
<text xml:space="preserve" text-anchor="start" x="497.38" y="-1671.3" font-family="Helvetica,sans-Serif" font-weight="bold" font-size="11.00">ocp&#45;test.yaml</text>
<text xml:space="preserve" text-anchor="start" x="449.38" y="-1660.3" font-family="Helvetica,sans-Serif" font-size="11.00"> &#160;&#160;&#160;&#160;&#160;&#160;&#160;&#160;&#160;&#160;&#160;&#160;&#160;&#160;&#160;</text>
<text xml:space="preserve" text-anchor="start" x="497.38" y="-1660.3" font-family="Helvetica,sans-Serif" font-size="10.00" fill="#555555">target nodes, namespace,</text>
<text xml:space="preserve" text-anchor="start" x="467.38" y="-1649.3" font-family="Helvetica,sans-Serif" font-size="10.00" fill="#555555">storage, GPU specs</text>
<text xml:space="preserve" text-anchor="start" x="556.62" y="-1649.3" font-family="Helvetica,sans-Serif" font-size="11.00"> &#160;&#160;&#160;&#160;&#160;&#160;&#160;&#160;&#160;&#160;&#160;</text>
<path fill="none" stroke="#d44332" stroke-width="2" d="M450.38,-1636.75C450.38,-1636.75 625.38,-1636.75 625.38,-1636.75 631.38,-1636.75 637.38,-1642.75 637.38,-1648.75 637.38,-1648.75 637.38,-1714.75 637.38,-1714.75 637.38,-1720.75 631.38,-1726.75 625.38,-1726.75 625.38,-1726.75 450.38,-1726.75 450.38,-1726.75 444.38,-1726.75 438.38,-1720.75 438.38,-1714.75 438.38,-1714.75 438.38,-1648.75 438.38,-1648.75 438.38,-1642.75 444.38,-1636.75 450.38,-1636.75"/>
</g>
<!-- test_suite&#45;&gt;cluster_config -->
<!-- generator -->
<g id="node4" class="node">
<title>generator</title>
<path fill="#f8f9fa" stroke="none" stroke-width="1.5" d="M825.88,-1547.25C825.88,-1547.25 249.88,-1547.25 249.88,-1547.25 243.88,-1547.25 237.88,-1541.25 237.88,-1535.25 237.88,-1535.25 237.88,-1453.25 237.88,-1453.25 237.88,-1447.25 243.88,-1441.25 249.88,-1441.25 249.88,-1441.25 825.88,-1441.25 825.88,-1441.25 831.88,-1441.25 837.88,-1447.25 837.88,-1453.25 837.88,-1453.25 837.88,-1535.25 837.88,-1535.25 837.88,-1541.25 831.88,-1547.25 825.88,-1547.25"/>
<path fill="#e4f3e9" stroke="none" d="M250.88,-1442.25C250.88,-1442.25 824.88,-1442.25 824.88,-1442.25 830.88,-1442.25 836.88,-1448.25 836.88,-1454.25 836.88,-1454.25 836.88,-1534.25 836.88,-1534.25 836.88,-1540.25 830.88,-1546.25 824.88,-1546.25 824.88,-1546.25 250.88,-1546.25 250.88,-1546.25 244.88,-1546.25 238.88,-1540.25 238.88,-1534.25 238.88,-1534.25 238.88,-1454.25 238.88,-1454.25 238.88,-1448.25 244.88,-1442.25 250.88,-1442.25"/>
<polygon fill="#2e944a" stroke="none" points="243.88,-1502.25 243.88,-1541.25 831.88,-1541.25 831.88,-1502.25 243.88,-1502.25"/>
<text xml:space="preserve" text-anchor="start" x="255.88" y="-1517.9" font-family="Helvetica,sans-Serif" font-size="11.00"> &#160;&#160;&#160;&#160;&#160;&#160;&#160;&#160;&#160;&#160;&#160;&#160;&#160;&#160;&#160;</text>
<text xml:space="preserve" text-anchor="start" x="303.88" y="-1517.9" font-family="Helvetica,sans-Serif" font-weight="bold" font-size="13.00" fill="white">python &#45;m src</text>
<text xml:space="preserve" text-anchor="start" x="392.38" y="-1517.9" font-family="Helvetica,sans-Serif" font-size="11.00"> &#160;&#160;&#160;&#160;&#160;&#160;&#160;&#160;&#160;&#160;&#160;&#160;&#160;&#160;&#160;</text>
<text xml:space="preserve" text-anchor="start" x="440.38" y="-1517.9" font-family="Helvetica,sans-Serif" font-size="10.00" fill="#b8dfc5"> &#160;common.py → node.py / cluster.py / project.py → generate.py → steps_io.py</text>
<text xml:space="preserve" text-anchor="start" x="783.88" y="-1517.9" font-family="Helvetica,sans-Serif" font-size="11.00"> &#160;&#160;&#160;&#160;&#160;&#160;&#160;&#160;&#160;&#160;&#160;</text>
<polygon fill="#c2e4cd" stroke="none" points="243.88,-1447.25 243.88,-1498.25 328.52,-1498.25 328.52,-1447.25 243.88,-1447.25"/>
<text xml:space="preserve" text-anchor="start" x="268.95" y="-1478.8" font-family="Helvetica,sans-Serif" font-size="11.00">Load &amp;</text>
<text xml:space="preserve" text-anchor="start" x="267.07" y="-1467.8" font-family="Helvetica,sans-Serif" font-size="11.00">Validate</text>
<text xml:space="preserve" text-anchor="start" x="268.57" y="-1458.7" font-family="Helvetica,sans-Serif" font-size="9.00" fill="#555555">Pydantic</text>
<polygon fill="#e4f3e9" stroke="none" points="332.52,-1447.25 332.52,-1498.25 394.66,-1498.25 394.66,-1447.25 332.52,-1447.25"/>
<text xml:space="preserve" text-anchor="start" x="355.71" y="-1466.92" font-family="Helvetica,sans-Serif" font-size="16.00" fill="#2e944a">→</text>
<polygon fill="#c2e4cd" stroke="none" points="398.66,-1447.25 398.66,-1498.25 505.05,-1498.25 505.05,-1447.25 398.66,-1447.25"/>
<text xml:space="preserve" text-anchor="start" x="429.73" y="-1478.8" font-family="Helvetica,sans-Serif" font-size="11.00">Compute</text>
<text xml:space="preserve" text-anchor="start" x="437.98" y="-1467.8" font-family="Helvetica,sans-Serif" font-size="11.00">Steps</text>
<text xml:space="preserve" text-anchor="start" x="421.86" y="-1458.7" font-family="Helvetica,sans-Serif" font-size="9.00" fill="#555555">flat ordered list</text>
<polygon fill="#e4f3e9" stroke="none" points="509.05,-1447.25 509.05,-1498.25 571.2,-1498.25 571.2,-1447.25 509.05,-1447.25"/>
<text xml:space="preserve" text-anchor="start" x="532.25" y="-1466.92" font-family="Helvetica,sans-Serif" font-size="16.00" fill="#2e944a">→</text>
<polygon fill="#c2e4cd" stroke="none" points="575.2,-1447.25 575.2,-1498.25 680.09,-1498.25 680.09,-1447.25 575.2,-1447.25"/>
<text xml:space="preserve" text-anchor="start" x="604.39" y="-1478.8" font-family="Helvetica,sans-Serif" font-size="11.00">Render &amp;</text>
<text xml:space="preserve" text-anchor="start" x="608.52" y="-1467.8" font-family="Helvetica,sans-Serif" font-size="11.00">Validate</text>
<text xml:space="preserve" text-anchor="start" x="598.39" y="-1458.7" font-family="Helvetica,sans-Serif" font-size="9.00" fill="#555555">Jinja2 + YAML</text>
<polygon fill="#e4f3e9" stroke="none" points="684.09,-1447.25 684.09,-1498.25 746.23,-1498.25 746.23,-1447.25 684.09,-1447.25"/>
<text xml:space="preserve" text-anchor="start" x="707.29" y="-1466.92" font-family="Helvetica,sans-Serif" font-size="16.00" fill="#2e944a">→</text>
<polygon fill="#c2e4cd" stroke="none" points="750.23,-1447.25 750.23,-1498.25 831.88,-1498.25 831.88,-1447.25 750.23,-1447.25"/>
<text xml:space="preserve" text-anchor="start" x="778.3" y="-1478.8" font-family="Helvetica,sans-Serif" font-size="11.00">Write</text>
<text xml:space="preserve" text-anchor="start" x="773.43" y="-1467.8" font-family="Helvetica,sans-Serif" font-size="11.00">Manual</text>
<text xml:space="preserve" text-anchor="start" x="773.8" y="-1458.7" font-family="Helvetica,sans-Serif" font-size="9.00" fill="#555555">+ Tekton</text>
<path fill="none" stroke="#2e944a" stroke-width="2" d="M250.88,-1442.25C250.88,-1442.25 824.88,-1442.25 824.88,-1442.25 830.88,-1442.25 836.88,-1448.25 836.88,-1454.25 836.88,-1454.25 836.88,-1534.25 836.88,-1534.25 836.88,-1540.25 830.88,-1546.25 824.88,-1546.25 824.88,-1546.25 250.88,-1546.25 250.88,-1546.25 244.88,-1546.25 238.88,-1540.25 238.88,-1534.25 238.88,-1534.25 238.88,-1454.25 238.88,-1454.25 238.88,-1448.25 244.88,-1442.25 250.88,-1442.25"/>
</g>
<!-- test_suite&#45;&gt;generator -->
<g id="edge9" class="edge">
<title>test_suite&#45;&gt;generator</title>
<path fill="none" stroke="#4a5568" stroke-width="1.5" d="M283.8,-1620.27C328.35,-1598.35 378.48,-1573.68 422.36,-1552.09"/>
<polygon fill="#4a5568" stroke="#4a5568" stroke-width="1.5" points="423.49,-1555.04 430.17,-1548.24 420.71,-1549.39 423.49,-1555.04"/>
</g>
<!-- gen_config -->
<g id="node3" class="node">
<title>gen_config</title>
<path fill="#f8f9fa" stroke="none" stroke-width="1.5" d="M975.88,-1722.25C975.88,-1722.25 765.88,-1722.25 765.88,-1722.25 759.88,-1722.25 753.88,-1716.25 753.88,-1710.25 753.88,-1710.25 753.88,-1653.25 753.88,-1653.25 753.88,-1647.25 759.88,-1641.25 765.88,-1641.25 765.88,-1641.25 975.88,-1641.25 975.88,-1641.25 981.88,-1641.25 987.88,-1647.25 987.88,-1653.25 987.88,-1653.25 987.88,-1710.25 987.88,-1710.25 987.88,-1716.25 981.88,-1722.25 975.88,-1722.25"/>
<path fill="#fdf6e0" stroke="none" d="M766.88,-1642.25C766.88,-1642.25 974.88,-1642.25 974.88,-1642.25 980.88,-1642.25 986.88,-1648.25 986.88,-1654.25 986.88,-1654.25 986.88,-1709.25 986.88,-1709.25 986.88,-1715.25 980.88,-1721.25 974.88,-1721.25 974.88,-1721.25 766.88,-1721.25 766.88,-1721.25 760.88,-1721.25 754.88,-1715.25 754.88,-1709.25 754.88,-1709.25 754.88,-1654.25 754.88,-1654.25 754.88,-1648.25 760.88,-1642.25 766.88,-1642.25"/>
<polygon fill="#d4960a" stroke="none" points="755.88,-1685.25 755.88,-1720.25 985.88,-1720.25 985.88,-1685.25 755.88,-1685.25"/>
<text xml:space="preserve" text-anchor="start" x="773.75" y="-1698.9" font-family="Helvetica,sans-Serif" font-size="11.00"> &#160;&#160;&#160;&#160;&#160;&#160;&#160;&#160;&#160;&#160;&#160;&#160;&#160;&#160;&#160;</text>
<text xml:space="preserve" text-anchor="start" x="821.75" y="-1698.9" font-family="Helvetica,sans-Serif" font-weight="bold" font-size="13.00" fill="white">Generator Config</text>
<text xml:space="preserve" text-anchor="start" x="932" y="-1698.9" font-family="Helvetica,sans-Serif" font-size="11.00"> &#160;&#160;&#160;&#160;&#160;&#160;&#160;&#160;&#160;&#160;&#160;</text>
<text xml:space="preserve" text-anchor="start" x="765.88" y="-1665.8" font-family="Helvetica,sans-Serif" font-size="11.00"> &#160;&#160;&#160;&#160;&#160;&#160;&#160;&#160;&#160;&#160;&#160;&#160;&#160;&#160;&#160;</text>
<text xml:space="preserve" text-anchor="start" x="813.88" y="-1665.8" font-family="Helvetica,sans-Serif" font-weight="bold" font-size="11.00">config.yaml</text>
<text xml:space="preserve" text-anchor="start" x="765.88" y="-1654.8" font-family="Helvetica,sans-Serif" font-size="11.00"> &#160;&#160;&#160;&#160;&#160;&#160;&#160;&#160;&#160;&#160;&#160;&#160;&#160;&#160;&#160;</text>
<text xml:space="preserve" text-anchor="start" x="813.88" y="-1654.8" font-family="Helvetica,sans-Serif" font-size="10.00" fill="#555555">default timeouts, tool images</text>
<text xml:space="preserve" text-anchor="start" x="939.88" y="-1654.8" font-family="Helvetica,sans-Serif" font-size="11.00"> &#160;&#160;&#160;&#160;&#160;&#160;&#160;&#160;&#160;&#160;&#160;</text>
<path fill="none" stroke="#d4960a" stroke-width="2" d="M766.88,-1642.25C766.88,-1642.25 974.88,-1642.25 974.88,-1642.25 980.88,-1642.25 986.88,-1648.25 986.88,-1654.25 986.88,-1654.25 986.88,-1709.25 986.88,-1709.25 986.88,-1715.25 980.88,-1721.25 974.88,-1721.25 974.88,-1721.25 766.88,-1721.25 766.88,-1721.25 760.88,-1721.25 754.88,-1715.25 754.88,-1709.25 754.88,-1709.25 754.88,-1654.25 754.88,-1654.25 754.88,-1648.25 760.88,-1642.25 766.88,-1642.25"/>
</g>
<!-- cluster_config&#45;&gt;gen_config -->
<!-- cluster_config&#45;&gt;generator -->
<g id="edge10" class="edge">
<title>cluster_config&#45;&gt;generator</title>
<path fill="none" stroke="#4a5568" stroke-width="1.5" d="M537.88,-1635.85C537.88,-1612.49 537.88,-1583.57 537.88,-1558.04"/>
<polygon fill="#4a5568" stroke="#4a5568" stroke-width="1.5" points="541.03,-1558.23 537.88,-1549.23 534.73,-1558.23 541.03,-1558.23"/>
</g>
<!-- gen_config&#45;&gt;generator -->
<g id="edge11" class="edge">
<title>gen_config&#45;&gt;generator</title>
<path fill="none" stroke="#4a5568" stroke-width="1.5" d="M800.25,-1641.41C753.88,-1615.58 692.46,-1581.36 640.71,-1552.53"/>
<polygon fill="#4a5568" stroke="#4a5568" stroke-width="1.5" points="642.54,-1549.95 633.14,-1548.32 639.47,-1555.45 642.54,-1549.95"/>
</g>
<!-- build_output -->
<g id="node5" class="node">
<title>build_output</title>
<path fill="#f8f9fa" stroke="none" stroke-width="1.5" d="M766.5,-1368.25C766.5,-1368.25 309.25,-1368.25 309.25,-1368.25 303.25,-1368.25 297.25,-1362.25 297.25,-1356.25 297.25,-1356.25 297.25,-1261.25 297.25,-1261.25 297.25,-1255.25 303.25,-1249.25 309.25,-1249.25 309.25,-1249.25 766.5,-1249.25 766.5,-1249.25 772.5,-1249.25 778.5,-1255.25 778.5,-1261.25 778.5,-1261.25 778.5,-1356.25 778.5,-1356.25 778.5,-1362.25 772.5,-1368.25 766.5,-1368.25"/>
<path fill="#f0e6f8" stroke="none" d="M310.25,-1250.25C310.25,-1250.25 765.5,-1250.25 765.5,-1250.25 771.5,-1250.25 777.5,-1256.25 777.5,-1262.25 777.5,-1262.25 777.5,-1355.25 777.5,-1355.25 777.5,-1361.25 771.5,-1367.25 765.5,-1367.25 765.5,-1367.25 310.25,-1367.25 310.25,-1367.25 304.25,-1367.25 298.25,-1361.25 298.25,-1355.25 298.25,-1355.25 298.25,-1262.25 298.25,-1262.25 298.25,-1256.25 304.25,-1250.25 310.25,-1250.25"/>
<polygon fill="#7e2ec8" stroke="none" points="303.25,-1323.25 303.25,-1362.25 772.5,-1362.25 772.5,-1323.25 303.25,-1323.25"/>
<text xml:space="preserve" text-anchor="start" x="477.88" y="-1338.9" font-family="Helvetica,sans-Serif" font-size="11.00"> &#160;&#160;&#160;&#160;&#160;&#160;&#160;&#160;&#160;&#160;&#160;&#160;&#160;&#160;&#160;</text>
<text xml:space="preserve" text-anchor="start" x="525.88" y="-1338.9" font-family="Helvetica,sans-Serif" font-weight="bold" font-size="13.00" fill="white">build/</text>
<text xml:space="preserve" text-anchor="start" x="561.88" y="-1338.9" font-family="Helvetica,sans-Serif" font-size="11.00"> &#160;&#160;&#160;&#160;&#160;&#160;&#160;&#160;&#160;&#160;&#160;</text>
<polygon fill="#e2d0f0" stroke="none" points="303.25,-1255.25 303.25,-1319.25 566.25,-1319.25 566.25,-1255.25 303.25,-1255.25"/>
<text xml:space="preserve" text-anchor="start" x="414.12" y="-1299.8" font-family="Helvetica,sans-Serif" font-weight="bold" font-size="11.00">manual/</text>
<text xml:space="preserve" text-anchor="start" x="354.12" y="-1288.8" font-family="Helvetica,sans-Serif" font-size="11.00"> &#160;&#160;&#160;&#160;&#160;&#160;&#160;&#160;&#160;&#160;&#160;&#160;&#160;&#160;&#160;&#160;&#160;&#160;&#160;</text>
<text xml:space="preserve" text-anchor="start" x="414.12" y="-1288.8" font-family="Helvetica,sans-Serif" font-size="10.00" fill="#555555">manifests/*.yaml (data)</text>
<text xml:space="preserve" text-anchor="start" x="347" y="-1277.8" font-family="Helvetica,sans-Serif" font-size="11.00"> &#160;&#160;&#160;&#160;&#160;&#160;&#160;&#160;&#160;&#160;&#160;&#160;&#160;&#160;&#160;&#160;&#160;&#160;&#160;</text>
<text xml:space="preserve" text-anchor="start" x="407" y="-1277.8" font-family="Helvetica,sans-Serif" font-size="10.00" fill="#555555">NNN&#45;*.sh scripts (actions)</text>
<text xml:space="preserve" text-anchor="start" x="313.25" y="-1266.8" font-family="Helvetica,sans-Serif" font-size="11.00"> &#160;&#160;&#160;&#160;&#160;&#160;&#160;&#160;&#160;&#160;&#160;&#160;&#160;&#160;&#160;&#160;&#160;&#160;&#160;</text>
<text xml:space="preserve" text-anchor="start" x="373.25" y="-1266.8" font-family="Helvetica,sans-Serif" font-size="9.00" fill="#888888">scripts in root, manifests in subdir</text>
<text xml:space="preserve" text-anchor="start" x="508.25" y="-1266.8" font-family="Helvetica,sans-Serif" font-size="11.00"> &#160;&#160;&#160;&#160;&#160;&#160;&#160;&#160;&#160;&#160;&#160;&#160;&#160;&#160;&#160;</text>
<polygon fill="#e2d0f0" stroke="none" points="570.25,-1255.25 570.25,-1319.25 772.5,-1319.25 772.5,-1255.25 570.25,-1255.25"/>
<text xml:space="preserve" text-anchor="start" x="653.38" y="-1299.8" font-family="Helvetica,sans-Serif" font-weight="bold" font-size="11.00">tekton/</text>
<text xml:space="preserve" text-anchor="start" x="592.25" y="-1288.8" font-family="Helvetica,sans-Serif" font-size="11.00"> &#160;&#160;&#160;&#160;&#160;&#160;&#160;&#160;&#160;&#160;&#160;&#160;&#160;&#160;&#160;&#160;&#160;&#160;&#160;</text>
<text xml:space="preserve" text-anchor="start" x="652.25" y="-1288.8" font-family="Helvetica,sans-Serif" font-size="10.00" fill="#555555">cluster pipeline, tasks,</text>
<text xml:space="preserve" text-anchor="start" x="589.62" y="-1277.8" font-family="Helvetica,sans-Serif" font-size="11.00"> &#160;&#160;&#160;&#160;&#160;&#160;&#160;&#160;&#160;&#160;&#160;&#160;&#160;&#160;&#160;&#160;&#160;&#160;&#160;</text>
<text xml:space="preserve" text-anchor="start" x="649.62" y="-1277.8" font-family="Helvetica,sans-Serif" font-size="10.00" fill="#555555">guard tasks, pipelinerun</text>
<text xml:space="preserve" text-anchor="start" x="580.25" y="-1266.8" font-family="Helvetica,sans-Serif" font-size="11.00"> &#160;&#160;&#160;&#160;&#160;&#160;&#160;&#160;&#160;&#160;&#160;&#160;&#160;&#160;&#160;&#160;&#160;&#160;&#160;</text>
<text xml:space="preserve" text-anchor="start" x="640.25" y="-1266.8" font-family="Helvetica,sans-Serif" font-size="9.00" fill="#888888">single flat pipeline</text>
<text xml:space="preserve" text-anchor="start" x="714.5" y="-1266.8" font-family="Helvetica,sans-Serif" font-size="11.00"> &#160;&#160;&#160;&#160;&#160;&#160;&#160;&#160;&#160;&#160;&#160;&#160;&#160;&#160;&#160;</text>
<path fill="none" stroke="#7e2ec8" stroke-width="2" d="M310.25,-1250.25C310.25,-1250.25 765.5,-1250.25 765.5,-1250.25 771.5,-1250.25 777.5,-1256.25 777.5,-1262.25 777.5,-1262.25 777.5,-1355.25 777.5,-1355.25 777.5,-1361.25 771.5,-1367.25 765.5,-1367.25 765.5,-1367.25 310.25,-1367.25 310.25,-1367.25 304.25,-1367.25 298.25,-1361.25 298.25,-1355.25 298.25,-1355.25 298.25,-1262.25 298.25,-1262.25 298.25,-1256.25 304.25,-1250.25 310.25,-1250.25"/>
</g>
<!-- generator&#45;&gt;build_output -->
<g id="edge12" class="edge">
<title>generator&#45;&gt;build_output</title>
<path fill="none" stroke="#4a5568" stroke-width="1.5" d="M537.88,-1441.65C537.88,-1422.24 537.88,-1399.84 537.88,-1379.08"/>
<polygon fill="#4a5568" stroke="#4a5568" stroke-width="1.5" points="541.03,-1379.34 537.88,-1370.34 534.73,-1379.34 541.03,-1379.34"/>
</g>
<!-- apply_configmap -->
<g id="node6" class="node">
<title>apply_configmap</title>
<path fill="#ffe8b8" stroke="#cc8a00" stroke-width="1.5" d="M593.5,-1107.25C593.5,-1107.25 482.25,-1107.25 482.25,-1107.25 476.25,-1107.25 470.25,-1101.25 470.25,-1095.25 470.25,-1095.25 470.25,-1083.25 470.25,-1083.25 470.25,-1077.25 476.25,-1071.25 482.25,-1071.25 482.25,-1071.25 593.5,-1071.25 593.5,-1071.25 599.5,-1071.25 605.5,-1077.25 605.5,-1083.25 605.5,-1083.25 605.5,-1095.25 605.5,-1095.25 605.5,-1101.25 599.5,-1107.25 593.5,-1107.25"/>
<text xml:space="preserve" text-anchor="start" x="484.25" y="-1084.83" font-family="Helvetica,sans-Serif" font-weight="bold" font-size="14.00" fill="#996600">1</text>
<text xml:space="preserve" text-anchor="start" x="503.75" y="-1085.55" font-family="Helvetica,sans-Serif" font-size="11.00"> &#160;Apply ConfigMap</text>
</g>
<!-- build_output&#45;&gt;apply_configmap -->
<g id="edge13" class="edge">
<title>build_output&#45;&gt;apply_configmap</title>
<path fill="none" stroke="#4a5568" stroke-width="1.5" d="M537.88,-1249.46C537.88,-1235.37 537.88,-1219.81 537.88,-1204.12"/>
<polygon fill="#4a5568" stroke="#4a5568" stroke-width="1.5" points="541.03,-1204.52 537.88,-1195.52 534.73,-1204.52 541.03,-1204.52"/>
<text xml:space="preserve" text-anchor="start" x="537.88" y="-1204.75" font-family="Helvetica,sans-Serif" font-weight="bold" font-size="10.00">oc apply &#45;f</text>
</g>
<!-- create_builder -->
<g id="node7" class="node">
<title>create_builder</title>
<path fill="#ffe8b8" stroke="#cc8a00" stroke-width="1.5" d="M598.75,-998.25C598.75,-998.25 477,-998.25 477,-998.25 471,-998.25 465,-992.25 465,-986.25 465,-986.25 465,-974.25 465,-974.25 465,-968.25 471,-962.25 477,-962.25 477,-962.25 598.75,-962.25 598.75,-962.25 604.75,-962.25 610.75,-968.25 610.75,-974.25 610.75,-974.25 610.75,-986.25 610.75,-986.25 610.75,-992.25 604.75,-998.25 598.75,-998.25"/>
<text xml:space="preserve" text-anchor="start" x="479" y="-975.83" font-family="Helvetica,sans-Serif" font-weight="bold" font-size="14.00" fill="#996600">2</text>
<text xml:space="preserve" text-anchor="start" x="498.5" y="-976.55" font-family="Helvetica,sans-Serif" font-size="11.00"> &#160;Create Builder Pod</text>
</g>
<!-- apply_configmap&#45;&gt;create_builder -->
<g id="edge3" class="edge">
<title>apply_configmap&#45;&gt;create_builder</title>
<path fill="none" stroke="#4a5568" stroke-width="1.5" d="M537.88,-1070.58C537.88,-1054.16 537.88,-1029.41 537.88,-1010.13"/>
<polygon fill="#4a5568" stroke="#4a5568" stroke-width="1.5" points="541.03,-1010.22 537.88,-1001.22 534.73,-1010.22 541.03,-1010.22"/>
</g>
<!-- build_binaries -->
<g id="node8" class="node">
<title>build_binaries</title>
<path fill="#ffe8b8" stroke="#cc8a00" stroke-width="1.5" d="M585.62,-889.25C585.62,-889.25 490.12,-889.25 490.12,-889.25 484.12,-889.25 478.12,-883.25 478.12,-877.25 478.12,-877.25 478.12,-865.25 478.12,-865.25 478.12,-859.25 484.12,-853.25 490.12,-853.25 490.12,-853.25 585.62,-853.25 585.62,-853.25 591.62,-853.25 597.62,-859.25 597.62,-865.25 597.62,-865.25 597.62,-877.25 597.62,-877.25 597.62,-883.25 591.62,-889.25 585.62,-889.25"/>
<text xml:space="preserve" text-anchor="start" x="492.12" y="-866.83" font-family="Helvetica,sans-Serif" font-weight="bold" font-size="14.00" fill="#996600">3</text>
<text xml:space="preserve" text-anchor="start" x="511.62" y="-867.55" font-family="Helvetica,sans-Serif" font-size="11.00"> &#160;Build Binaries</text>
</g>
<!-- create_builder&#45;&gt;build_binaries -->
<g id="edge4" class="edge">
<title>create_builder&#45;&gt;build_binaries</title>
<path fill="none" stroke="#4a5568" stroke-width="1.5" d="M537.88,-961.58C537.88,-945.16 537.88,-920.41 537.88,-901.13"/>
<polygon fill="#4a5568" stroke="#4a5568" stroke-width="1.5" points="541.03,-901.22 537.88,-892.22 534.73,-901.22 541.03,-901.22"/>
</g>
<!-- test_execution -->
<g id="node9" class="node">
<title>test_execution</title>
<path fill="#f8f9fa" stroke="none" stroke-width="1.5" d="M820.5,-780.25C820.5,-780.25 255.25,-780.25 255.25,-780.25 249.25,-780.25 243.25,-774.25 243.25,-768.25 243.25,-768.25 243.25,-588.5 243.25,-588.5 243.25,-582.5 249.25,-576.5 255.25,-576.5 255.25,-576.5 820.5,-576.5 820.5,-576.5 826.5,-576.5 832.5,-582.5 832.5,-588.5 832.5,-588.5 832.5,-768.25 832.5,-768.25 832.5,-774.25 826.5,-780.25 820.5,-780.25"/>
<path fill="#e8eef8" stroke="none" d="M256.25,-577.5C256.25,-577.5 819.5,-577.5 819.5,-577.5 825.5,-577.5 831.5,-583.5 831.5,-589.5 831.5,-589.5 831.5,-767.25 831.5,-767.25 831.5,-773.25 825.5,-779.25 819.5,-779.25 819.5,-779.25 256.25,-779.25 256.25,-779.25 250.25,-779.25 244.25,-773.25 244.25,-767.25 244.25,-767.25 244.25,-589.5 244.25,-589.5 244.25,-583.5 250.25,-577.5 256.25,-577.5"/>
<polygon fill="#354999" stroke="none" points="249.25,-726.5 249.25,-774.25 826.5,-774.25 826.5,-726.5 249.25,-726.5"/>
<text xml:space="preserve" text-anchor="start" x="314.33" y="-745.95" font-family="Helvetica,sans-Serif" font-weight="bold" font-size="14.00" fill="white">4</text>
<text xml:space="preserve" text-anchor="start" x="428" y="-747.1" font-family="Helvetica,sans-Serif" font-weight="bold" font-size="12.00" fill="white"> &#160;Test Task Chains</text>
<text xml:space="preserve" text-anchor="start" x="637.67" y="-746.88" font-family="Helvetica,sans-Serif" font-size="10.00" fill="#9aa1cc"> &#160;in test_suite.yaml list order</text>
<polygon fill="#dde4f0" stroke="none" points="249.25,-628.5 249.25,-722.5 442.5,-722.5 442.5,-628.5 249.25,-628.5"/>
<text xml:space="preserve" text-anchor="start" x="271.62" y="-703.05" font-family="Helvetica,sans-Serif" font-size="11.00"> &#160;&#160;&#160;&#160;&#160;&#160;&#160;&#160;&#160;&#160;&#160;&#160;&#160;&#160;&#160;&#160;&#160;&#160;&#160;&#160;&#160;&#160;&#160;&#160;&#160;&#160;&#160;</text>
<text xml:space="preserve" text-anchor="start" x="355.62" y="-703.05" font-family="Helvetica,sans-Serif" font-weight="bold" font-size="11.00">scope: node</text>
<text xml:space="preserve" text-anchor="start" x="261.88" y="-692.05" font-family="Helvetica,sans-Serif" font-size="11.00"> &#160;&#160;&#160;&#160;&#160;&#160;&#160;&#160;&#160;&#160;&#160;&#160;&#160;&#160;&#160;&#160;&#160;&#160;&#160;&#160;&#160;&#160;&#160;&#160;&#160;&#160;&#160;</text>
<text xml:space="preserve" text-anchor="start" x="345.88" y="-692.05" font-family="Helvetica,sans-Serif" font-size="10.00" fill="#555555">parallel task chains</text>
<text xml:space="preserve" text-anchor="start" x="314.75" y="-682" font-family="Helvetica,sans-Serif" font-size="10.00" fill="#555555">(one per node)</text>
<text xml:space="preserve" text-anchor="start" x="259.25" y="-660.05" font-family="Helvetica,sans-Serif" font-size="11.00"> &#160;&#160;&#160;&#160;&#160;&#160;&#160;&#160;&#160;&#160;&#160;&#160;&#160;&#160;&#160;&#160;&#160;&#160;&#160;&#160;&#160;&#160;&#160;&#160;&#160;&#160;&#160;</text>
<text xml:space="preserve" text-anchor="start" x="343.25" y="-660.05" font-family="Courier,monospace" font-size="9.00">deploy DAG → wait</text>
<text xml:space="preserve" text-anchor="start" x="301.25" y="-650.95" font-family="Courier,monospace" font-size="9.00">→ run steps/sweep</text>
<text xml:space="preserve" text-anchor="start" x="273.12" y="-640.05" font-family="Courier,monospace" font-size="9.00">→ teardown DAG</text>
<text xml:space="preserve" text-anchor="start" x="346.62" y="-640.05" font-family="Helvetica,sans-Serif" font-size="11.00"> &#160;&#160;&#160;&#160;&#160;&#160;&#160;&#160;&#160;&#160;&#160;&#160;&#160;&#160;&#160;&#160;&#160;&#160;&#160;&#160;&#160;&#160;&#160;</text>
<polygon fill="#dde4f0" stroke="none" points="446.5,-628.5 446.5,-722.5 629.25,-722.5 629.25,-628.5 446.5,-628.5"/>
<text xml:space="preserve" text-anchor="start" x="458.75" y="-703.05" font-family="Helvetica,sans-Serif" font-size="11.00"> &#160;&#160;&#160;&#160;&#160;&#160;&#160;&#160;&#160;&#160;&#160;&#160;&#160;&#160;&#160;&#160;&#160;&#160;&#160;&#160;&#160;&#160;&#160;&#160;&#160;&#160;&#160;</text>
<text xml:space="preserve" text-anchor="start" x="542.75" y="-703.05" font-family="Helvetica,sans-Serif" font-weight="bold" font-size="11.00">scope: cluster</text>
<text xml:space="preserve" text-anchor="start" x="458" y="-692.05" font-family="Helvetica,sans-Serif" font-size="11.00"> &#160;&#160;&#160;&#160;&#160;&#160;&#160;&#160;&#160;&#160;&#160;&#160;&#160;&#160;&#160;&#160;&#160;&#160;&#160;&#160;&#160;&#160;&#160;&#160;&#160;&#160;&#160;</text>
<text xml:space="preserve" text-anchor="start" x="542" y="-692.05" font-family="Helvetica,sans-Serif" font-size="10.00" fill="#555555">orchestrate tasks</text>
<text xml:space="preserve" text-anchor="start" x="491.38" y="-682" font-family="Helvetica,sans-Serif" font-size="10.00" fill="#555555">across nodes directly</text>
<text xml:space="preserve" text-anchor="start" x="456.5" y="-660.05" font-family="Helvetica,sans-Serif" font-size="11.00"> &#160;&#160;&#160;&#160;&#160;&#160;&#160;&#160;&#160;&#160;&#160;&#160;&#160;&#160;&#160;&#160;&#160;&#160;&#160;&#160;&#160;&#160;&#160;&#160;&#160;&#160;&#160;</text>
<text xml:space="preserve" text-anchor="start" x="540.5" y="-660.05" font-family="Courier,monospace" font-size="9.00">node A (server)</text>
<text xml:space="preserve" text-anchor="start" x="493.25" y="-650.95" font-family="Courier,monospace" font-size="9.00">→ node B (client)</text>
<text xml:space="preserve" text-anchor="start" x="457.25" y="-640.05" font-family="Courier,monospace" font-size="9.00">→ collect results</text>
<text xml:space="preserve" text-anchor="start" x="546.5" y="-640.05" font-family="Helvetica,sans-Serif" font-size="11.00"> &#160;&#160;&#160;&#160;&#160;&#160;&#160;&#160;&#160;&#160;&#160;&#160;&#160;&#160;&#160;&#160;&#160;&#160;&#160;&#160;&#160;&#160;&#160;</text>
<polygon fill="#dde4f0" stroke="none" points="633.25,-628.5 633.25,-722.5 826.5,-722.5 826.5,-628.5 633.25,-628.5"/>
<text xml:space="preserve" text-anchor="start" x="650.38" y="-703.05" font-family="Helvetica,sans-Serif" font-size="11.00"> &#160;&#160;&#160;&#160;&#160;&#160;&#160;&#160;&#160;&#160;&#160;&#160;&#160;&#160;&#160;&#160;&#160;&#160;&#160;&#160;&#160;&#160;&#160;&#160;&#160;&#160;&#160;</text>
<text xml:space="preserve" text-anchor="start" x="734.38" y="-703.05" font-family="Helvetica,sans-Serif" font-weight="bold" font-size="11.00">scope: project</text>
<text xml:space="preserve" text-anchor="start" x="653.75" y="-692.05" font-family="Helvetica,sans-Serif" font-size="11.00"> &#160;&#160;&#160;&#160;&#160;&#160;&#160;&#160;&#160;&#160;&#160;&#160;&#160;&#160;&#160;&#160;&#160;&#160;&#160;&#160;&#160;&#160;&#160;&#160;&#160;&#160;&#160;</text>
<text xml:space="preserve" text-anchor="start" x="737.75" y="-692.05" font-family="Helvetica,sans-Serif" font-size="10.00" fill="#555555">no node affinity,</text>
<text xml:space="preserve" text-anchor="start" x="693.12" y="-682" font-family="Helvetica,sans-Serif" font-size="10.00" fill="#555555">namespace&#45;level</text>
<text xml:space="preserve" text-anchor="start" x="643.25" y="-660.05" font-family="Helvetica,sans-Serif" font-size="11.00"> &#160;&#160;&#160;&#160;&#160;&#160;&#160;&#160;&#160;&#160;&#160;&#160;&#160;&#160;&#160;&#160;&#160;&#160;&#160;&#160;&#160;&#160;&#160;&#160;&#160;&#160;&#160;</text>
<text xml:space="preserve" text-anchor="start" x="727.25" y="-660.05" font-family="Courier,monospace" font-size="9.00">quota/RBAC checks</text>
<text xml:space="preserve" text-anchor="start" x="682.62" y="-650.95" font-family="Courier,monospace" font-size="9.00">→ network policies</text>
<text xml:space="preserve" text-anchor="start" x="649.25" y="-640.05" font-family="Courier,monospace" font-size="9.00">→ collect results</text>
<text xml:space="preserve" text-anchor="start" x="738.5" y="-640.05" font-family="Helvetica,sans-Serif" font-size="11.00"> &#160;&#160;&#160;&#160;&#160;&#160;&#160;&#160;&#160;&#160;&#160;&#160;&#160;&#160;&#160;&#160;&#160;&#160;&#160;&#160;&#160;&#160;&#160;</text>
<text xml:space="preserve" text-anchor="start" x="390.12" y="-605.05" font-family="Helvetica,sans-Serif" font-size="11.00"> &#160;&#160;&#160;&#160;&#160;&#160;&#160;&#160;&#160;&#160;&#160;&#160;&#160;&#160;&#160;&#160;&#160;&#160;&#160;&#160;&#160;&#160;&#160;</text>
<text xml:space="preserve" text-anchor="start" x="462.12" y="-605.05" font-family="Helvetica,sans-Serif" font-size="10.00" fill="#555555">each test ends with a guard task (fan&#45;in sync point)</text>
<text xml:space="preserve" text-anchor="start" x="375.12" y="-594.05" font-family="Helvetica,sans-Serif" font-size="11.00"> &#160;&#160;&#160;&#160;&#160;&#160;&#160;&#160;&#160;&#160;&#160;&#160;&#160;&#160;&#160;&#160;&#160;&#160;&#160;&#160;&#160;&#160;&#160;</text>
<text xml:space="preserve" text-anchor="start" x="447.12" y="-594.05" font-family="Helvetica,sans-Serif" font-size="10.00" fill="#555555">per&#45;test onFailure: continue | skipTest | abort</text>
<text xml:space="preserve" text-anchor="start" x="640.62" y="-594.05" font-family="Helvetica,sans-Serif" font-size="11.00"> &#160;&#160;&#160;&#160;&#160;&#160;&#160;&#160;&#160;&#160;&#160;&#160;&#160;&#160;&#160;&#160;&#160;&#160;&#160;</text>
<path fill="none" stroke="#354999" stroke-width="2" d="M256.25,-577.5C256.25,-577.5 819.5,-577.5 819.5,-577.5 825.5,-577.5 831.5,-583.5 831.5,-589.5 831.5,-589.5 831.5,-767.25 831.5,-767.25 831.5,-773.25 825.5,-779.25 819.5,-779.25 819.5,-779.25 256.25,-779.25 256.25,-779.25 250.25,-779.25 244.25,-773.25 244.25,-767.25 244.25,-767.25 244.25,-589.5 244.25,-589.5 244.25,-583.5 250.25,-577.5 256.25,-577.5"/>
</g>
<!-- build_binaries&#45;&gt;test_execution -->
<g id="edge5" class="edge">
<title>build_binaries&#45;&gt;test_execution</title>
<path fill="none" stroke="#4a5568" stroke-width="1.5" d="M537.88,-852.64C537.88,-837.83 537.88,-815.29 537.88,-791.32"/>
<polygon fill="#4a5568" stroke="#4a5568" stroke-width="1.5" points="541.03,-791.5 537.88,-782.5 534.73,-791.5 541.03,-791.5"/>
</g>
<!-- create_aggregator -->
<g id="node10" class="node">
<title>create_aggregator</title>
<path fill="#ffe8b8" stroke="#cc8a00" stroke-width="1.5" d="M597.25,-494C597.25,-494 478.5,-494 478.5,-494 472.5,-494 466.5,-488 466.5,-482 466.5,-482 466.5,-470 466.5,-470 466.5,-464 472.5,-458 478.5,-458 478.5,-458 597.25,-458 597.25,-458 603.25,-458 609.25,-464 609.25,-470 609.25,-470 609.25,-482 609.25,-482 609.25,-488 603.25,-494 597.25,-494"/>
<text xml:space="preserve" text-anchor="start" x="480.5" y="-471.57" font-family="Helvetica,sans-Serif" font-weight="bold" font-size="14.00" fill="#996600">5</text>
<text xml:space="preserve" text-anchor="start" x="500" y="-472.3" font-family="Helvetica,sans-Serif" font-size="11.00"> &#160;Create Aggregator</text>
</g>
<!-- test_execution&#45;&gt;create_aggregator -->
<g id="edge6" class="edge">
<title>test_execution&#45;&gt;create_aggregator</title>
<path fill="none" stroke="#4a5568" stroke-width="1.5" stroke-dasharray="5,2" d="M537.88,-576.6C537.88,-550.58 537.88,-524.6 537.88,-505.71"/>
<polygon fill="#4a5568" stroke="#4a5568" stroke-width="1.5" points="541.03,-505.92 537.88,-496.92 534.73,-505.92 541.03,-505.92"/>
</g>
<!-- aggregate -->
<g id="node11" class="node">
<title>aggregate</title>
<path fill="#ffe8b8" stroke="#cc8a00" stroke-width="1.5" d="M596.88,-385C596.88,-385 478.88,-385 478.88,-385 472.88,-385 466.88,-379 466.88,-373 466.88,-373 466.88,-361 466.88,-361 466.88,-355 472.88,-349 478.88,-349 478.88,-349 596.88,-349 596.88,-349 602.88,-349 608.88,-355 608.88,-361 608.88,-361 608.88,-373 608.88,-373 608.88,-379 602.88,-385 596.88,-385"/>
<text xml:space="preserve" text-anchor="start" x="480.88" y="-362.57" font-family="Helvetica,sans-Serif" font-weight="bold" font-size="14.00" fill="#996600">6</text>
<text xml:space="preserve" text-anchor="start" x="500.38" y="-363.3" font-family="Helvetica,sans-Serif" font-size="11.00"> &#160;Aggregate Results</text>
</g>
<!-- create_aggregator&#45;&gt;aggregate -->
<g id="edge7" class="edge">
<title>create_aggregator&#45;&gt;aggregate</title>
<path fill="none" stroke="#4a5568" stroke-width="1.5" d="M537.88,-457.33C537.88,-440.91 537.88,-416.16 537.88,-396.88"/>
<polygon fill="#4a5568" stroke="#4a5568" stroke-width="1.5" points="541.03,-396.97 537.88,-387.97 534.73,-396.97 541.03,-396.97"/>
</g>
<!-- cleanup_step -->
<g id="node12" class="node">
<title>cleanup_step</title>
<path fill="#ffe8b8" stroke="#cc8a00" stroke-width="1.5" d="M572.88,-276C572.88,-276 502.88,-276 502.88,-276 496.88,-276 490.88,-270 490.88,-264 490.88,-264 490.88,-252 490.88,-252 490.88,-246 496.88,-240 502.88,-240 502.88,-240 572.88,-240 572.88,-240 578.88,-240 584.88,-246 584.88,-252 584.88,-252 584.88,-264 584.88,-264 584.88,-270 578.88,-276 572.88,-276"/>
<text xml:space="preserve" text-anchor="start" x="504.88" y="-253.57" font-family="Helvetica,sans-Serif" font-weight="bold" font-size="14.00" fill="#996600">7</text>
<text xml:space="preserve" text-anchor="start" x="524.38" y="-254.3" font-family="Helvetica,sans-Serif" font-size="11.00"> &#160;Cleanup</text>
</g>
<!-- aggregate&#45;&gt;cleanup_step -->
<g id="edge8" class="edge">
<title>aggregate&#45;&gt;cleanup_step</title>
<path fill="none" stroke="#4a5568" stroke-width="1.5" d="M537.88,-348.33C537.88,-331.91 537.88,-307.16 537.88,-287.88"/>
<polygon fill="#4a5568" stroke="#4a5568" stroke-width="1.5" points="541.03,-287.97 537.88,-278.97 534.73,-287.97 541.03,-287.97"/>
</g>
<!-- results -->
<g id="node13" class="node">
<title>results</title>
<path fill="#f8f9fa" stroke="none" stroke-width="1.5" d="M689.88,-139C689.88,-139 385.88,-139 385.88,-139 379.88,-139 373.88,-133 373.88,-127 373.88,-127 373.88,-12 373.88,-12 373.88,-6 379.88,0 385.88,0 385.88,0 689.88,0 689.88,0 695.88,0 701.88,-6 701.88,-12 701.88,-12 701.88,-127 701.88,-127 701.88,-133 695.88,-139 689.88,-139"/>
<path fill="#e4f3e5" stroke="none" d="M386.88,-1C386.88,-1 688.88,-1 688.88,-1 694.88,-1 700.88,-7 700.88,-13 700.88,-13 700.88,-126 700.88,-126 700.88,-132 694.88,-138 688.88,-138 688.88,-138 386.88,-138 386.88,-138 380.88,-138 374.88,-132 374.88,-126 374.88,-126 374.88,-13 374.88,-13 374.88,-7 380.88,-1 386.88,-1"/>
<polygon fill="#2a7030" stroke="none" points="375.88,-98 375.88,-137 699.88,-137 699.88,-98 375.88,-98"/>
<text xml:space="preserve" text-anchor="start" x="427.62" y="-113.65" font-family="Helvetica,sans-Serif" font-size="11.00"> &#160;&#160;&#160;&#160;&#160;&#160;&#160;&#160;&#160;&#160;&#160;&#160;&#160;&#160;&#160;</text>
<text xml:space="preserve" text-anchor="start" x="475.62" y="-113.65" font-family="Helvetica,sans-Serif" font-weight="bold" font-size="13.00" fill="white">RESULTS</text>
<text xml:space="preserve" text-anchor="start" x="537.12" y="-113.65" font-family="Helvetica,sans-Serif" font-size="11.00"> &#160;&#160;&#160;&#160;&#160;&#160;&#160;&#160;&#160;&#160;&#160;&#160;&#160;&#160;&#160;</text>
<text xml:space="preserve" text-anchor="start" x="585.12" y="-113.65" font-family="Helvetica,sans-Serif" font-size="10.00" fill="#a0d4a3"> &#160;PVC</text>
<text xml:space="preserve" text-anchor="start" x="612.12" y="-113.65" font-family="Helvetica,sans-Serif" font-size="11.00"> &#160;&#160;&#160;&#160;&#160;&#160;&#160;&#160;&#160;&#160;&#160;</text>
<text xml:space="preserve" text-anchor="start" x="387.88" y="-76.55" font-family="Helvetica,sans-Serif" font-size="11.00"> &#160;&#160;&#160;&#160;&#160;&#160;&#160;&#160;&#160;&#160;&#160;&#160;&#160;&#160;&#160;</text>
<text xml:space="preserve" text-anchor="start" x="435.88" y="-76.55" font-family="Courier,monospace" font-size="10.00">&lt;basePath&gt;/&lt;pipeline&#45;run&#45;name&gt;/</text>
<text xml:space="preserve" text-anchor="start" x="387.88" y="-66.5" font-family="Courier,monospace" font-size="10.00">├── binaries/&lt;test&gt;/test.bin</text>
<text xml:space="preserve" text-anchor="start" x="387.88" y="-56.5" font-family="Courier,monospace" font-size="10.00">├── &lt;step_name&gt;/ &#160;&#160;&#160;&#160;&#160;&#160;&#160;&#160;&#160;&#160;&#160;&#160;&#160;</text>
<text xml:space="preserve" text-anchor="start" x="567.88" y="-56.5" font-family="Courier,monospace" font-size="10.00" fill="#666666"># flat, one per step</text>
<text xml:space="preserve" text-anchor="start" x="387.88" y="-46.5" font-family="Courier,monospace" font-size="10.00">│ &#160;&#160;&#160;&#160;junit.xml, benchmarks</text>
<text xml:space="preserve" text-anchor="start" x="387.88" y="-36.5" font-family="Courier,monospace" font-size="10.00">└── report/</text>
<text xml:space="preserve" text-anchor="start" x="387.88" y="-26.5" font-family="Courier,monospace" font-size="10.00"> &#160;&#160;&#160;&#160;&#160;summary.json &#160;&#160;&#160;&#160;&#160;&#160;&#160;&#160;&#160;&#160;&#160;&#160;</text>
<text xml:space="preserve" text-anchor="start" x="573.88" y="-26.5" font-family="Courier,monospace" font-size="10.00" fill="#666666"># aggregated</text>
<text xml:space="preserve" text-anchor="start" x="471.88" y="-15.55" font-family="Courier,monospace" font-size="10.00"> &#160;&#160;&#160;&#160;&#160;&#160;&#160;&#160;&#160;&#160;&#160;&#160;&#160;&#160;&#160;</text>
<text xml:space="preserve" text-anchor="start" x="567.88" y="-15.55" font-family="Helvetica,sans-Serif" font-size="11.00"> &#160;&#160;&#160;&#160;&#160;&#160;&#160;&#160;&#160;&#160;&#160;</text>
<path fill="none" stroke="#2a7030" stroke-width="2" d="M386.88,-1C386.88,-1 688.88,-1 688.88,-1 694.88,-1 700.88,-7 700.88,-13 700.88,-13 700.88,-126 700.88,-126 700.88,-132 694.88,-138 688.88,-138 688.88,-138 386.88,-138 386.88,-138 380.88,-138 374.88,-132 374.88,-126 374.88,-126 374.88,-13 374.88,-13 374.88,-7 380.88,-1 386.88,-1"/>
</g>
<!-- aggregate&#45;&gt;results -->
<g id="edge15" class="edge">
<title>aggregate&#45;&gt;results</title>
<path fill="none" stroke="#2a7030" stroke-width="1.5" d="M559.66,-348.29C578.08,-331.79 603.13,-305.39 613.88,-276 627.92,-237.6 625.76,-223.12 613.88,-184 610.19,-171.86 604.72,-159.83 598.37,-148.4"/>
<polygon fill="#2a7030" stroke="#2a7030" stroke-width="1.5" points="601.26,-147.1 594.01,-140.92 595.82,-150.28 601.26,-147.1"/>
<text xml:space="preserve" text-anchor="start" x="623.62" y="-254.5" font-family="Helvetica,sans-Serif" font-size="10.00" fill="#2a7030">write report</text>
</g>
<!-- cleanup_step&#45;&gt;results -->
</g>
</svg>
